<?xml version="1.0" encoding="utf-8"?>
<!-- Generator: Adobe Illustrator 19.0.0, SVG Export Plug-In . SVG Version: 6.00 Build 0)  -->
<svg version="1.1" id="Layer_1" xmlns="http://www.w3.org/2000/svg" xmlns:xlink="http://www.w3.org/1999/xlink" x="0px" y="0px"
	 width="600px" height="600px" viewBox="0 0 600 600" enable-background="new 0 0 600 600" xml:space="preserve">
<path id="color_x5F_2_3_" fill="#197FA4" d="M456.846,566.737c-1.333,0-2.53,0.622-3.595,1.862
	c-5.854,7.275-10.955,11.756-15.301,13.439c0.178-1.596,0.266-2.838,0.266-3.725c0-3.104-0.73-5.965-2.192-8.583
	c-1.466-2.615-3.615-5.786-6.453-9.513c-1.954-2.393-3.395-4.39-4.325-5.987c-0.932-1.597-1.398-3.06-1.398-4.39
	c0-2.218,0.798-4.924,2.395-8.116c0.621-1.151,1.108-2.307,1.466-3.461c0.353-1.151,0.532-1.995,0.532-2.526
	c0-0.976-0.49-1.684-1.466-2.13c-0.976-0.442-2.705-0.665-5.189-0.665c-5.321,0-8.826,1.952-10.511,5.854
	c-1.951,4.612-3.947,9.07-5.986,13.371c-2.043,4.305-3.816,7.741-5.321,10.312c-2.31,3.63-5.666,8.186-10.045,13.655
	c-3.839,3.949-11.217,10.295-15.168,2.978c-1.2-2.218-1.978-5.899-2.33-11.045c8.159-14.013,14.681-27.675,19.558-40.979
	c3.832-10.453,6.138-19.849,6.96-28.222c-3.798,0.815-7.775,1.472-11.793,1.999c-1.208,12.306-6.066,27.735-14.591,46.313
	c0.531-10.555,1.398-20.667,2.595-30.336c0.694-5.604,1.473-10.572,2.331-14.939c-5.025,0.426-9.925,0.685-14.415,0.837
	c-2.478,9.233-4.294,19.549-5.413,31.001c-6.565,0.712-12.486,2.993-17.764,6.852c-5.275,3.858-9.424,8.828-12.439,14.901
	c-2.917,5.872-4.406,12.222-4.503,19.043c-1.769,1.927-3.309,3.483-4.608,4.642c-2.441,2.175-4.546,3.259-6.32,3.259
	c-2.574,0-3.858-1.773-3.858-5.322c0-2.482,0.839-7.584,2.527-15.301c1.948-9.048,2.926-15.301,2.926-18.76
	c0-5.765-2.884-8.648-8.649-8.648c-2.927,0-5.966,1.355-9.646,3.059c-6.474,2.997-19.227,19.027-19.227,19.027
	s4.127-17.474,4.127-18.894c0-1.241-0.357-2.083-1.064-2.526c-0.712-0.444-1.954-0.665-3.728-0.665
	c-3.281,0-5.832,0.599-7.651,1.796c-1.818,1.196-3.125,3.082-3.923,5.654c-3.051,9.643-4.666,19.794-4.881,30.432
	c-2.629,3.008-4.82,5.311-6.561,6.89c-2.396,2.175-4.437,3.259-6.121,3.259c-1.064,0-1.929-0.399-2.594-1.196
	c-0.666-0.799-0.998-1.863-0.998-3.193c0-3.993,1.019-11.087,3.06-21.288c1.331-7.006,1.996-11.443,1.996-13.306
	c0-3.104-2.174-4.657-6.52-4.657c-2.042,0-3.991,0.179-5.854,0.531c-0.445-1.949-0.998-3.303-1.663-4.057
	c-0.666-0.752-1.976-1.131-3.925-1.131c-6.121,0-11.908,1.93-17.364,5.787c-5.455,3.859-9.825,8.961-13.105,15.301
	c-3.105,6-4.723,12.342-4.89,19.014c-1.806,1.75-3.504,3.137-5.087,4.138c-3.017,1.909-6.343,2.861-9.979,2.861
	c-4.171,0-7.407-1.95-9.713-5.855c-2.308-3.902-3.459-10.511-3.459-19.825c0-3.813,0.133-7.494,0.399-11.043
	c22.44-8.516,33.662-23.771,33.662-45.77c0-5.676-1.287-10.267-3.858-13.771c-2.574-3.503-6.077-5.256-10.512-5.256
	c-6.033,0-11.488,2.662-16.365,7.983c-4.879,5.321-8.961,12.24-12.241,20.756c-3.283,8.515-5.722,17.652-7.318,27.409
	c-3.992,0.621-8.782,1.063-14.37,1.33l-13.039,0.665c2.129-12.594,3.193-22.573,3.193-29.937c0-8.337-1.575-14.478-4.723-18.427
	c-3.15-3.946-7.606-5.922-13.372-5.922c-6.12,0-12.153,1.752-18.095,5.256c-5.943,3.505-10.867,7.963-14.769,13.371
	c-2.216,3.106-3.327,6.033-3.327,8.781c0,1.775,0.446,3.239,1.331,4.391c0.886,1.154,1.95,1.73,3.193,1.73
	c1.418,0,2.704-0.753,3.858-2.262c7.804-10.377,14.813-15.567,21.021-15.567c2.04,0,3.68,0.755,4.924,2.262
	c1.24,1.51,1.862,4.347,1.862,8.516c0,6.565-1.154,16.099-3.459,28.606l-7.052,0.267c-3.904,0.179-6.698,0.955-8.382,2.329
	c-1.686,1.376-2.528,3.524-2.528,6.452c0,2.309,0.666,3.971,1.996,4.989c1.33,1.022,3.46,1.53,6.387,1.53l6.386-0.267
	c-1.775,8.429-4.17,18.717-7.185,30.868c-0.445,2.043-0.665,3.639-0.665,4.79c0,5.146,2.838,7.717,8.517,7.717
	c5.232,0,8.781-3.857,10.643-11.574c3.194-13.126,5.677-24.217,7.451-33.264c1.685-0.088,4.834-0.308,9.447-0.665
	c6.919-0.533,13.306-1.33,19.159-2.395c-0.266,3.017-0.399,6.033-0.399,9.048c0,12.419,2.572,21.953,7.717,28.606
	c5.143,6.653,12.018,9.979,20.623,9.979c7.348,0,14.38-2.945,21.1-8.817c0.563,1,1.193,1.949,1.917,2.83
	c3.28,3.992,7.671,5.987,13.171,5.987c7.007,0,12.817-3.725,17.431-11.176c1.24,3.458,3.08,6.186,5.521,8.183
	c2.439,1.996,5.123,2.993,8.05,2.993c3.812,0,7.76-1.55,11.842-4.657c1.601-1.218,3.158-2.579,4.692-4.017
	c0.271,1.268,0.589,2.393,0.96,3.352c1.375,3.549,3.746,5.322,7.119,5.322c2.747,0,4.766-0.731,6.054-2.194
	c1.284-1.464,2.416-4.279,3.392-8.449c1.333-5.41,3.083-10.555,5.256-15.434c2.172-4.879,4.301-8.804,6.388-11.775
	c2.081-2.972,3.701-4.458,4.857-4.458c0.973,0,1.463,0.712,1.463,2.13c0,2.128-0.579,5.986-1.729,11.574
	c-1.244,6.387-1.865,10.824-1.865,13.305c0,4.971,1.153,8.761,3.462,11.377c2.306,2.617,5.72,3.925,10.243,3.925
	c5.59,0,10.579-1.508,14.969-4.524c1.897-1.303,3.74-2.774,5.53-4.393c0.602,1.011,1.277,1.971,2.051,2.863
	c3.503,4.038,7.96,6.054,13.373,6.054c3.724,0,6.984-0.798,9.779-2.395c2.793-1.597,6.054-4.745,9.777-9.447
	c3.548,7.896,8.692,11.842,15.434,11.842c4.258,0,8.561-1.574,12.907-4.724c9.781-7.09,17.18-17.27,22.75-27.873
	c1.241,1.419,2.572,3.083,3.993,4.988c1.416,1.909,2.593,3.881,3.524,5.921c0.934,2.041,1.441,4.214,1.53,6.519
	c-0.797-0.088-1.974-0.242-3.526-0.465c-1.552-0.221-2.906-0.333-4.056-0.333c-3.285,0-5.767,0.844-7.453,2.527
	c-1.684,1.686-2.526,3.682-2.526,5.987c0,2.661,1.218,5.057,3.658,7.185c2.44,2.129,5.964,3.193,10.578,3.193
	c4.878,0,9.09-1.51,12.641-4.522c5.941-0.178,10.929-1.265,14.966-3.261c4.035-1.996,8.272-5.741,12.709-11.242
	c1.683-2.129,2.528-4.878,2.528-8.249c0-1.862-0.335-3.327-0.999-4.392C458.908,567.27,457.996,566.737,456.846,566.737z
	 M172.652,511.122c1.95-6.119,4.012-10.953,6.187-14.503c2.172-3.547,4.235-5.322,6.187-5.322c1.064,0,1.95,0.578,2.661,1.729
	c0.709,1.154,1.065,2.751,1.065,4.791c0,8.515-1.686,15.479-5.056,20.889c-3.372,5.411-8.605,9.58-15.7,12.507
	C169.147,523.941,170.699,517.242,172.652,511.122z M226.536,570.996c-0.798,3.814-2.085,6.874-3.858,9.181
	c-1.776,2.307-3.638,3.458-5.589,3.458c-1.952,0-3.482-0.665-4.59-1.996c-1.109-1.329-1.663-3.369-1.663-6.12
	c0-4.967,0.931-9.667,2.794-14.103c1.862-4.435,4.368-8.004,7.518-10.71c3.147-2.705,6.585-4.102,10.311-4.191L226.536,570.996z
	 M351.068,581.573c-1.686,1.376-3.37,2.061-5.056,2.061c-4.437,0-6.651-3.237-6.651-9.712c0-6.121,1.617-11.685,4.857-16.698
	c3.234-5.011,7.293-8.27,12.173-9.78c-0.18,4.79-0.266,8.25-0.266,10.38c0,5.942,0.443,11.308,1.33,16.099
	C354.88,577.648,352.753,580.198,351.068,581.573z M127.879,399.492c7.539-0.235,14.657-4.321,21.356-12.215
	c6.696-7.896,12.707-19.764,18.028-35.566c0.533,13.89,2.749,24.851,6.653,32.852c3.902,8.006,9.756,11.702,17.562,11.027
	c8.516-0.735,17.139-5.917,25.878-15.53c8.736-9.61,16.209-21.38,22.419-35.267c4.214,0.415,8.834,0.425,13.857,0.032
	c-0.514,0.914-1.013,1.846-1.483,2.806c-3.283,6.704-4.924,13.605-4.923,20.698c0,6.478,1.641,11.531,4.923,15.159
	c3.28,3.631,7.672,5.137,13.172,4.521c7.007-0.785,12.816-5.162,17.429-13.13c1.241,3.32,3.081,5.84,5.522,7.563
	c2.439,1.725,5.122,2.424,8.05,2.1c3.811-0.42,7.762-2.403,11.841-5.949c4.079-3.542,7.937-7.768,11.575-12.67
	c1.303-1.756,11.956-16.368,10.775-17.6c1.241,1.294,2.571,2.825,3.991,4.591c1.42,1.771,2.595,3.627,3.526,5.578
	c0.933,1.95,1.44,4.076,1.531,6.373c-0.798-0.013-1.977-0.053-3.527-0.126c-1.554-0.068-2.906-0.046-4.057,0.067
	c-3.284,0.326-5.768,1.425-7.451,3.281c-1.688,1.859-2.529,3.943-2.529,6.247c0,2.661,1.221,4.931,3.66,6.809
	c2.438,1.881,5.964,2.586,10.576,2.137c4.879-0.476,9.092-2.38,12.641-5.715c5.942-0.72,10.931-2.228,14.969-4.554
	c1.726-0.995,3.488-2.327,5.285-3.96c0.195,2.452,0.559,4.273,1.099,5.449c0.844,1.844,2.594,2.661,5.256,2.465
	c6.654-0.484,10.821-4.289,12.507-11.495c1.331-5.493,8.375-18.578,10.502-21.661c2.129-3.082,3.771-4.647,4.924-4.702
	c0.974-0.048,1.465,0.642,1.462,2.059c0,2.131-0.576,6.013-1.729,11.655c-1.244,6.448-0.789,4.699-0.79,7.182
	c0,4.969,1.151,8.702,3.46,11.211c2.306,2.512,5.722,3.666,10.244,3.505c5.5-0.195,10.4-1.828,14.702-4.927
	c4.301-3.097,8.493-6.998,12.574-11.715c1.684-1.955,2.527-4.704,2.527-8.254c0-1.861-0.332-3.327-0.997-4.39
	c-0.665-1.064-1.576-1.593-2.728-1.589c-1.331,0.006-2.529,0.639-3.594,1.889c-4.082,4.917-7.34,8.504-9.778,10.728
	c-2.441,2.225-4.546,3.365-6.32,3.416c-2.572,0.073-3.857-1.653-3.857-5.203c-0.002-2.482,2.199-24.19,2.199-27.651
	c0-5.761-2.884-8.581-8.647-8.375c-2.927,0.106-5.973,1.789-10.314,5.461c-3.161,2.676-12.353,15.025-16.503,21.174
	c0-4.877,0.545-13.539,0.811-18.168c13.021-12.354,19.901-21.339,25.136-31.181c2.08-3.909,3.729-7.741,4.982-11.506
	c-3.901-0.304-7.918-0.748-11.926-1.281c-0.869,2.936-2.025,5.999-3.502,9.21c-3.592,7.812-8.137,15.115-13.638,21.939
	c1.152-9.207,2.638-17.752,4.458-25.622c0.594-2.567,1.194-4.949,1.802-7.179c-4.746-0.802-9.309-1.671-13.458-2.517
	c-2.679,7.435-4.875,15.705-6.571,24.828c-2.796,15.022-4.19,29.37-4.192,43.03c-0.022,1.738-0.043,3.478-0.064,5.217
	c-4.778,5.831-9.016,9.651-12.706,11.398c0.176-1.611,0.265-2.861,0.266-3.748c0-3.103-0.73-5.902-2.194-8.391
	c-1.465-2.485-3.615-5.468-6.453-8.936c-1.951-2.217-3.395-4.076-4.325-5.587c-0.933-1.51-1.396-2.928-1.396-4.259
	c0.002-2.217,0.799-4.999,2.395-8.341c0.619-1.209,1.107-2.408,1.465-3.597c0.354-1.185,0.532-2.043,0.532-2.576
	c0-0.976-0.491-1.64-1.465-1.994c-0.978-0.352-2.705-0.412-5.188-0.175c-5.323,0.508-8.829,2.813-10.513,6.886
	c-1.95,4.809-3.948,9.47-5.986,13.981c-2.042,4.514-3.815,8.133-5.323,10.863c-2.381,3.988-5.869,9.085-10.448,15.271
	c-2.21,2.529-12.311,12.331-12.301,2.753c0-3.992,1.02-11.199,3.059-21.625c1.331-7.153,1.998-11.662,1.997-13.525
	c0-3.104-2.174-4.422-6.52-3.939c-2.041,0.226-3.99,0.622-5.855,1.183c-0.444-1.899-0.997-3.191-1.663-3.872
	c-0.666-0.677-1.975-0.909-3.925-0.691c-5.381,0.602-10.503,2.673-15.37,6.2c-8.153,0.816-18.718,1.757-21.885,1.544
	c4.345-12.716,6.52-24.088,6.52-34.111c0-7.098-1.664-12.499-4.989-16.218c-3.326-3.713-7.831-5.267-13.505-4.663
	c-4.613,0.489-8.805,2.123-12.573,4.9c-3.772,2.778-6.742,6.686-8.915,11.73c-2.174,5.05-3.26,11.071-3.26,18.08
	c0,7.006,1.375,13.063,4.124,18.159c2.749,5.1,6.83,9.061,12.242,11.873c-4.348,10.028-9.137,18.517-14.37,25.455
	c-5.235,6.94-9.98,10.597-14.237,10.977c-3.639,0.326-6.41-0.971-8.315-3.868c-1.909-2.9-3.194-7.251-3.858-13.052
	c-0.666-5.801-0.998-13.623-0.998-23.469c-0.001-14.458,1.242-29.014,3.726-43.681c0.176-0.813,0.265-1.93,0.266-3.349
	c0.001-2.396-0.646-4.136-1.929-5.23c-1.287-1.091-3.306-1.522-6.055-1.309c-3.283,0.257-5.878,1.227-7.783,2.915
	c-1.908,1.689-3.216,4.599-3.925,8.727c-3.017,17.95-6.698,33.472-11.043,46.549c-4.348,13.081-8.714,22.983-13.105,29.71
	c-4.391,6.728-8.141,10.138-11.244,10.25c-3.459,0.122-6.209-3.034-8.249-9.456c-2.042-6.419-3.061-15.578-3.06-27.464
	c0-12.774,1.33-28.278,3.992-46.537c0.177-1.777,0.267-2.98,0.266-3.6c0-3.103-0.732-5.212-2.195-6.329
	c-1.463-1.113-3.526-1.641-6.188-1.593c-3.547,0.065-6.143,0.954-7.783,2.699c-1.643,1.745-2.773,4.832-3.393,9.27
	c-2.307,15.623-3.459,29.943-3.459,42.983c0,17.916,2.173,32.185,6.519,42.75C112.931,394.542,119.364,399.758,127.879,399.492z
	 M266.653,352.202c1.863-4.642,4.368-8.492,7.518-11.553c3.147-3.058,6.585-4.842,10.311-5.349
	c-1.641,8.345-3.283,16.689-4.923,25.035c-0.8,3.904-2.086,7.108-3.859,9.612c-1.775,2.507-3.639,3.867-5.588,4.086
	c-1.952,0.22-3.482-0.273-4.59-1.479c-1.11-1.206-1.663-3.186-1.663-5.937C263.859,361.651,264.791,356.849,266.653,352.202z
	 M222.08,308.334c0-5.143,0.753-9.192,2.261-12.14c1.507-2.949,3.46-4.549,5.855-4.801c1.683-0.176,3.015,0.547,3.991,2.173
	c0.975,1.625,1.464,4.302,1.464,8.028c0,6.474-1.729,14.865-5.189,25.163C224.874,323.176,222.081,317.027,222.08,308.334z
	 M461.219,23.357l-4.748,29.256c6.906,0.851,13.845,1.926,19.762,3.271c0,0-0.538,28.324-6.419,39.546
	c0,0-37.338-3.356-52.944-7.241l4.891-38.442c0,0,8.741,0.364,20.075,1.347l5.002-30.817c-11.605-2.415-22.232-4.406-26.319-4.556
	c-10.762-0.394-14.467,5.768-14.467,5.768l-13.397-0.82c0,0-0.127-15.892,18.137-20.057c18.267-4.165,80.201,14.373,80.201,14.373
	L487.32,29.27C487.32,29.27,475.24,26.434,461.219,23.357z"/>
<path id="color_x5F_1_3_" fill="#E98624" d="M92.035,216.426c0.256-2.897,0.482-4.859,0.675-5.89
	c0.387-2.188,1.029-3.991,1.932-5.407c-0.323-0.13-0.934-0.29-1.834-0.483c-0.902-0.193-1.514-0.387-1.835-0.58
	c-0.709-0.641-1.062-1.544-1.062-2.702c0-2.253,0.707-3.67,2.124-4.249c4.634-1.802,9.397-2.702,14.29-2.702
	c11.521,0,24.126,2.35,28.483,12.842c0.347,0.835,2.928,12.354-11.49,20.082c-3.387,1.813-10.331,4.956-21.145,8.883
	c-0.193,1.61-0.033,3.733,0.483,6.372c0.579,2.962,0.869,4.989,0.869,6.082c0,0.903-0.097,1.739-0.29,2.511
	c-0.451,1.418-1.336,2.607-2.655,3.573c-1.32,0.966-2.817,1.448-4.49,1.448c-0.645,0-1.289-0.064-1.932-0.192l-2.124-2.222
	c-0.709-5.407-1.063-11.104-1.063-17.091C90.973,230.909,91.326,224.149,92.035,216.426z M102.173,218.211
	c-0.323,1.835-0.483,3.106-0.483,3.814c0,1.609,0.514,2.593,1.545,2.945c1.029,0.354,2.124,0.53,3.283,0.53
	c3.604,0,7.208-1.414,10.814-4.249c3.604-2.831,7.999-6.149,6.758-9.654c-3.146-8.883-13.614-8.497-18.248-8.497
	c-1.223,0-2.447,0.161-3.669,0.483C102.108,203.584,102.494,216.377,102.173,218.211z M145.428,220.673
	c0.064-1.931-0.242-4.811-0.917-8.642c-0.676-3.829-1.013-6.58-1.013-8.256c0-2.38,0.449-4.473,1.351-6.275
	c1.029-2.058,2.801-3.088,5.311-3.088c2.574,0,3.959,1.351,4.152,4.054c0.064,0.387,0,1.063-0.193,2.029
	c-0.194,0.965-0.29,1.578-0.29,1.833v20.662c-0.13,2.255-0.097,5.247,0.096,8.98c0.257,4.44,0.387,7.371,0.387,8.787
	c0,5.214-0.806,9.558-2.414,13.033c-0.709,1.609-1.996,2.414-3.862,2.414c-1.224,0-2.431-0.338-3.621-1.013
	c-1.192-0.678-1.787-1.915-1.787-3.719c0-0.514,0.101-1.027,0.301-1.545c1.2-3.99,1.899-8.817,2.1-14.482
	C145.161,230.49,145.294,225.566,145.428,220.673z M165.8,228.977c-0.065-4.376,1.222-8.027,3.862-10.958
	c2.638-2.928,6.018-4.393,10.138-4.393c4.377,0,8.255,1.657,11.635,4.971c3.379,3.317,5.037,7.194,4.973,11.636
	c-0.579,1.804-2.994,3.96-7.242,6.468c-5.279,3.155-8.207,5.021-8.786,5.601c-1.096,0.516-1.642,1.063-1.642,1.642
	c0,1.03,0.709,1.946,2.124,2.751c1.415,0.806,2.67,1.206,3.766,1.206c2.125,0,5.18-1.028,9.172-3.088
	c1.223,0.901,1.836,2.124,1.836,3.668c0,1.224-0.386,2.352-1.16,3.38c-0.771,1.031-1.771,1.642-2.993,1.835
	c-4.12,0.643-6.727,0.965-7.82,0.965c-2.189,0-4.152-0.386-5.89-1.158C170.112,250.091,166.121,241.916,165.8,228.977z
	 M176.324,233.902c5.728-0.258,9.205-2.285,10.429-6.084c0.255-0.515,0.385-1.028,0.385-1.545c0-1.352-0.71-2.445-2.125-3.283
	c-1.416-0.835-2.993-1.255-4.73-1.255c-1.289,0-2.383,0.258-3.284,0.773c-1.868,0.965-2.799,2.992-2.799,6.082
	C174.201,232.003,174.908,233.774,176.324,233.902z M226.193,258.281c-0.547-0.354-1.109-1.078-1.689-2.173
	c-0.517-0.9-0.999-1.352-1.449-1.352c-3.412-0.58-6.855-1.159-10.331-1.738c-3.799-0.965-6.503-2.831-8.111-5.6
	c-1.03-1.352-1.544-3.154-1.544-5.407c0-3.283,0.804-5.986,2.413-8.109c3.863-5.215,9.525-7.822,16.994-7.822
	c3.217,0,4.762,0.098,4.635,0.29c0.514-0.771,0.772-1.867,0.772-3.282c0-1.673-0.482-2.623-1.449-2.849
	c-0.965-0.225-1.93-0.338-2.897-0.338c-1.674,0-3.524,0.403-5.551,1.206c-2.028,0.807-4.007,1.563-5.938,2.27
	c-0.324,0.131-0.613,0.192-0.87,0.192c-1.03,0-1.867-0.739-2.511-2.22c-0.515-1.158-0.772-2.414-0.772-3.766
	c0-0.836,0.096-1.352,0.29-1.545c4.249-2.896,9.043-4.345,14.387-4.345c5.6,0,9.365,1.997,11.297,5.986
	c1.029,2.189,1.544,4.57,1.544,7.146c0,2.123-0.419,5.116-1.255,8.979c-0.965,4.247-1.545,7.338-1.738,9.27
	c-0.322,4.825-0.645,8.108-0.965,9.848c-0.772,3.925-1.995,5.889-3.668,5.889C227.27,258.812,226.739,258.633,226.193,258.281z
	 M224.407,246.551c0.193-0.902,0.61-2.511,1.255-4.829c0.579-1.801,0.869-3.283,0.869-4.441c0-1.352-0.29-2.702-0.869-4.056
	c-3.283,0.71-6.534,1.385-9.751,2.028c-3.8,1.097-5.73,3.349-5.793,6.759c-0.066,1.48,1.351,2.737,4.248,3.767
	c2.51,0.965,5.021,1.447,7.532,1.447C223.377,247.226,224.215,247.001,224.407,246.551z M260.517,212.954
	c2.445,0.972,4.891,1.976,7.337,3.015c2.639,1.298,4.442,2.917,5.407,4.86c0.193,0.26,0.29,0.616,0.29,1.068
	c0,1.816-0.613,3.112-1.834,3.891c-0.58,0.324-1.224,0.485-1.932,0.485c-1.095,0-3.154-0.916-6.179-2.752
	c-3.027-1.834-5.407-2.751-7.146-2.751c-1.287,0-2.543,0.355-3.765,1.065c-0.579,0.387-0.869,0.936-0.869,1.645
	c0,0.904,0.531,1.936,1.592,3.098c1.063,1.161,2.011,1.902,2.849,2.226c6.694,2.39,11.779,5.197,15.255,8.424
	c1.16,1.097,1.739,2.614,1.739,4.55c0,2.26-0.693,4.552-2.076,6.874c-1.385,2.324-3.638,4.277-6.758,5.857
	c-3.122,1.58-6.324,2.371-9.607,2.371c-5.793,0-9.848-2.415-12.165-7.24c-0.193-0.387-0.29-0.837-0.29-1.354
	c0-1.093,0.514-2.107,1.544-3.041c1.029-0.933,2.125-1.431,3.283-1.496c0.901-0.128,1.705,0.451,2.414,1.737
	c0.836,1.482,1.511,2.352,2.028,2.607c1.158,0.578,2.477,0.869,3.958,0.869c2.253,0,4.232-0.596,5.938-1.791
	c1.704-1.192,2.559-2.758,2.559-4.694c0-1.485-1.482-2.904-4.442-4.261c-3.283-1.419-6.533-2.809-9.751-4.162
	c-3.476-1.807-5.89-4.098-7.241-6.874c-0.386-0.839-0.579-1.677-0.579-2.516c0-2.904,1.834-5.713,5.502-8.423
	c3.477-2.581,6.887-3.874,10.235-3.874C258.842,212.369,259.744,212.566,260.517,212.954z M280.503,228.977
	c-0.065-4.376,1.221-8.027,3.861-10.958c2.638-2.928,6.017-4.393,10.137-4.393c4.378,0,8.256,1.657,11.635,4.971
	c3.38,3.317,5.037,7.194,4.973,11.636c-0.578,1.804-2.992,3.96-7.24,6.468c-5.279,3.155-8.208,5.021-8.787,5.601
	c-1.095,0.516-1.641,1.063-1.641,1.642c0,1.03,0.707,1.946,2.124,2.751c1.415,0.806,2.67,1.206,3.765,1.206
	c2.125,0,5.181-1.028,9.173-3.088c1.222,0.901,1.835,2.124,1.835,3.668c0,1.224-0.387,2.352-1.159,3.38
	c-0.772,1.031-1.771,1.642-2.993,1.835c-4.12,0.643-6.728,0.965-7.82,0.965c-2.19,0-4.152-0.386-5.89-1.158
	C284.814,250.091,280.824,241.916,280.503,228.977z M291.026,233.902c5.728-0.258,9.206-2.285,10.429-6.084
	c0.256-0.515,0.386-1.028,0.386-1.545c0-1.352-0.709-2.445-2.124-3.283c-1.417-0.835-2.993-1.255-4.73-1.255
	c-1.289,0-2.383,0.258-3.283,0.773c-1.868,0.965-2.8,2.992-2.8,6.082C288.903,232.003,289.61,233.774,291.026,233.902z
	 M321.895,436.944c-0.214-0.127-0.465-0.185-0.74-0.169c-1.111,0.063-2.424,1.234-3.934,3.516c-1.51,2.279-2.207,4.462-2.09,6.547
	c0.147,2.642,1.806,4.222,4.972,4.741c0.561,0.11,1.088,0.147,1.573,0.12c3.127-0.175,4.586-2.173,4.372-5.995
	C325.865,442.438,324.48,439.519,321.895,436.944z M453.909,381.443c-24.314,17.159-34.539,15.908-120.683,18.727
	c-52.101,1.705-75.739,5.361-94.735,28.045c-18.806,22.455-15.595,79.792-15.595,79.792c11.374-7.722,27.168-11.439,46.456-13.599
	c-1.14-1.702-1.855-3.225-2.087-4.542c-0.316-1.784,0.175-3.212,1.468-4.288c0.489-0.439,1.007-0.708,1.556-0.804
	c1.166-0.207,2.31,0.068,3.431,0.823c1.12,0.759,1.89,1.7,2.303,2.829c2.716-3.025,4.299-5.672,4.745-7.939
	c0.087-3.127,0.197-6.292,0.338-9.496c0.028-0.643-0.01-1.271-0.12-1.889c-0.291-1.645-1.38-3.82-3.271-6.528
	c-1.893-2.701-3.028-4.727-3.403-6.075c-1.111-3.478-2.759-8.809-4.945-15.987c-0.354-1.209-0.709-2.418-1.063-3.628
	c-0.277-1.576-0.169-2.762,0.326-3.556c0.806-1.839,2.305-2.952,4.498-3.338c2.059-0.364,3.606,0.21,4.653,1.722
	c1.321,1.888,2.269,4.654,2.843,8.298c0.754,4.676,1.337,7.575,1.747,8.705c0.224,0.455,0.471,0.658,0.743,0.611
	c0.205-0.037,0.614-0.532,1.223-1.49c0.915-3.622,1.803-7.206,2.663-10.752c1.266-4.04,3.064-7.045,5.404-9.012
	c0.683-0.545,1.605-0.921,2.771-1.127c2.81-0.495,4.385,0.218,4.725,2.136c0.097,0.551,0.034,1.196-0.187,1.941
	c-1.917,5.569-3.833,11.139-5.746,16.706c-2.076,6.659-2.84,12.553-2.288,17.685c0.513,5.706-0.367,11.939-2.637,18.702
	c-1.215,3.733-2.678,6.7-4.382,8.912c29.884-2.172,66.378-2.438,106.832-7.841C477.79,473.665,453.909,381.443,453.909,381.443z
	 M327.819,460.559c-1.173,1.392-3.086,2.16-5.726,2.307c-1.876,0.106-3.458-0.153-4.749-0.778
	c-5.883-2.945-9.021-7.966-9.417-15.055c-0.102-1.806,0.039-3.591,0.431-5.355c0.5-2.259,1.518-4.649,3.049-7.179
	c1.792-2.818,2.781-4.477,2.963-4.976c0.911-2.42,2.685-3.707,5.327-3.855c3.128-0.176,5.91,0.961,8.347,3.403
	c2.437,2.443,4.366,5.786,5.79,10.027c0.506,1.577,0.802,3.129,0.887,4.656C335.026,449.175,332.726,454.78,327.819,460.559z
	 M376.285,453.976c-2.056,6.879-5.658,11.61-10.811,14.199c-2.102,1.024-4.094,1.589-5.968,1.694
	c-5.282,0.295-9.508-2.882-12.668-9.538c-2.6-5.362-4.112-11.829-4.537-19.406c-0.079-1.39-0.081-2.713-0.014-3.974
	c-0.031-1.809-0.015-3.692,0.05-5.649c0.065-1.952,0.732-3.421,2.003-4.399c1.018-0.475,2.188-0.75,3.509-0.822
	c3.544-0.199,5.39,0.951,5.526,3.454l0.154,10.238c0.092,4.109,0.42,7.506,0.991,10.192c0.691,2.402,1.383,4.805,2.076,7.205
	c1.072,3.009,2.238,4.477,3.488,4.406c0.416-0.023,0.86-0.188,1.332-0.492c5.546-4.286,8.095-10.424,7.648-18.416
	c-0.259-4.587-1.636-8.657-4.134-12.212c-1.365-1.945-2.092-3.717-2.182-5.318c-0.112-2.013,1.222-3.098,4.001-3.255
	c2.711-0.152,5.193,1.243,7.45,4.182c2.026,2.608,3.193,5.403,3.501,8.382C378.521,441.58,378.049,448.091,376.285,453.976z
	 M415.738,428.342c-1.215,1.95-3.498,4.466-6.845,7.547c-3.35,3.08-5.694,5.74-7.03,7.975c-0.444,0.792-0.669,2.061-0.677,3.804
	c-0.006,1.742-0.184,2.956-0.527,3.634c-0.348,0.686-0.493,1.479-0.443,2.381c0.083,1.459,0.72,2.887,1.912,4.283
	c0.965,1.061,1.499,2.462,1.597,4.198c0.143,2.571-0.54,4.668-2.053,6.286c-0.95,1.727-2.468,2.648-4.552,2.764
	c-1.738,0.099-3.164-0.484-4.281-1.747c-1.226-0.698-1.833-2.232-1.825-4.604c-0.071-6.2-1.066-14.685-2.995-25.452
	c-0.204-1.103-0.86-2.914-1.978-5.432c-1.038-2.311-1.588-4.094-1.658-5.344c-0.094-1.668,0.453-3.112,1.64-4.328
	c1.188-1.218,2.474-1.862,3.866-1.941c1.806-0.102,3.417,0.662,4.832,2.291c1.415,1.631,2.189,3.589,2.318,5.881
	c0.028,0.488,0.055,0.975,0.081,1.461c1.78-0.378,3.878-1.958,6.288-4.743c2.209-2.635,4.28-4.006,6.216-4.114
	c0.691-0.039,1.425,0.025,2.196,0.191c2.969,1.02,4.487,2.085,4.547,3.196C416.397,427.086,416.189,427.689,415.738,428.342z
	 M329.659,233.682c-0.787,21.52,42.639,28.838,67.762,32.648c126.766,19.228,122.032-9.953,122.032-9.953s8.988-55.367,2.722-83.444
	c-6.266-28.077-50.331-64.998-50.331-64.998c-10.977,0.927-56.899-7.884-56.899-7.884s-31.57,11.112-62.823,45.276
	C334.092,165.032,329.659,233.682,329.659,233.682z M383.255,186.908c3.663-22.567,27.586-37.462,53.43-33.267
	c25.848,4.195,43.83,25.894,40.164,48.462c-3.664,22.571-27.585,37.465-53.431,33.27C397.573,231.177,379.59,209.48,383.255,186.908
	z M160.232,104.861c-15.858,0-28.713,12.857-28.713,28.713c0,15.857,12.855,28.713,28.713,28.713
	c15.856,0,28.713-12.856,28.713-28.713C188.946,117.718,176.089,104.861,160.232,104.861z M160.232,140.919
	c-5.533,0-10.016-4.484-10.016-10.017c0-5.531,4.483-10.016,10.016-10.016s10.017,4.484,10.017,10.016
	C170.249,136.435,165.765,140.919,160.232,140.919z M101.467,47.769c-18.439,0-33.388,14.949-33.388,33.389
	c0,18.438,14.949,33.387,33.388,33.387c18.438,0,33.388-14.948,33.388-33.387C134.854,62.718,119.905,47.769,101.467,47.769z
	 M97.46,79.154c-5.532,0-10.016-4.485-10.016-10.017c0-5.53,4.484-10.017,10.016-10.017c5.533,0,10.017,4.486,10.017,10.017
	C107.476,74.668,102.992,79.154,97.46,79.154z M225.669,59.788c-13.277,0-24.039,10.764-24.039,24.04
	c0,13.275,10.762,24.038,24.039,24.038c13.276,0,24.039-10.763,24.039-24.038C249.708,70.552,238.945,59.788,225.669,59.788z
	 M232.347,86.832c-4.15,0-7.513-3.363-7.513-7.512c0-4.148,3.362-7.512,7.513-7.512c4.15,0,7.512,3.363,7.512,7.512
	C239.859,83.469,236.497,86.832,232.347,86.832z M499.909,445.212c-12.132-5.394-26.339,0.068-31.732,12.198
	c-5.395,12.131,0.066,26.339,12.198,31.733c12.131,5.394,26.339-0.068,31.732-12.198
	C517.502,464.815,512.04,450.607,499.909,445.212z M495.023,472.638c-3.792-1.687-5.497-6.126-3.813-9.918
	c1.686-3.79,6.125-5.498,9.918-3.811c3.79,1.685,5.496,6.125,3.811,9.915C503.253,472.615,498.815,474.322,495.023,472.638z
	 M524.031,387.883c-8.851,0-16.026,7.175-16.026,16.025c0,8.851,7.176,16.026,16.026,16.026c8.851,0,16.025-7.176,16.025-16.026
	C540.056,395.058,532.881,387.883,524.031,387.883z M148.755,433.289c-8.113,0-14.69,6.578-14.69,14.691
	c0,8.111,6.578,14.69,14.69,14.69c8.113,0,14.69-6.578,14.69-14.69C163.445,439.867,156.867,433.289,148.755,433.289z
	 M87.322,398.566c-15.119,0-27.377,12.261-27.377,27.379c0,15.118,12.258,27.378,27.377,27.378c15.12,0,27.377-12.26,27.377-27.378
	C114.699,410.826,102.441,398.566,87.322,398.566z M83.983,431.954c-5.163,0-9.348-4.187-9.348-9.349
	c0-5.163,4.186-9.349,9.348-9.349c5.163,0,9.349,4.186,9.349,9.349C93.331,427.768,89.146,431.954,83.983,431.954z M367.11,24.843
	c-6.131-18.364-25.985-28.284-44.35-22.155c-8.939,2.983-15.869,9.225-19.931,16.959c-6.718-3.464-14.769-4.324-22.506-1.742
	c-15.216,5.079-23.435,21.53-18.356,36.747c4.126,12.364,15.762,20.108,28.141,19.853c-0.307,4.931,0.3,10.002,1.96,14.976
	c6.916,20.728,29.325,31.921,50.051,25.005c20.725-6.917,31.919-29.325,25.003-50.053c-1.064-3.188-2.497-6.15-4.233-8.856
	C368.776,46.856,370.698,35.597,367.11,24.843z M337.74,30.013c-4.664,1.556-9.706-0.963-11.263-5.629
	c-1.556-4.664,0.963-9.707,5.626-11.262c4.665-1.558,9.708,0.961,11.265,5.626C344.925,23.413,342.406,28.455,337.74,30.013z"/>
</svg>
