<?xml version="1.0" encoding="utf-8"?>
<!-- Generator: Adobe Illustrator 24.1.0, SVG Export Plug-In . SVG Version: 6.00 Build 0)  -->
<svg version="1.1" id="Layer_1" xmlns="http://www.w3.org/2000/svg" xmlns:xlink="http://www.w3.org/1999/xlink" x="0px" y="0px"
	 width="600px" height="600px" viewBox="0 0 600 600" enable-background="new 0 0 600 600" xml:space="preserve">
<path id="Color_x5F_1" fill="#163B68" d="M187.658,215.405c3.855-1.356,6.734-3.693,8.721-7.094
	c1.978-3.417,2.484-6.889,1.408-10.44c-1.081-3.565-3.453-6.194-7.2-7.797c-3.76-1.576-7.768-1.647-11.911-0.189
	c-6.224,2.191-12.404,4.555-18.531,7.094c5.784,13.964,11.568,27.927,17.352,41.891c2.815-1.166,5.642-2.29,8.481-3.372
	c-2.171-5.696-4.343-11.392-6.514-17.089C182.186,217.371,184.917,216.37,187.658,215.405z M181.587,198.154
	c1.406-0.495,2.784-0.468,4.12,0.078c1.308,0.535,2.165,1.429,2.58,2.671c0.41,1.224,0.261,2.441-0.431,3.655
	c-0.708,1.241-1.741,2.096-3.109,2.578c-2.812,0.99-5.614,2.017-8.406,3.081c-1.131-2.966-2.261-5.932-3.392-8.898
	C175.819,200.226,178.698,199.171,181.587,198.154z M220.77,205.619c4.082,5.287,8.027,10.641,11.833,16.058
	c3.181-0.685,6.369-1.321,9.564-1.908c-3.796-5.777-7.745-11.492-11.847-17.138c2.658-1.546,4.653-3.606,5.996-6.217
	c1.359-2.634,1.818-5.344,1.314-8.141c-0.659-3.667-2.698-6.545-6.207-8.559c-3.533-2.027-7.48-2.579-11.73-1.622
	c-6.385,1.438-12.74,3.05-19.059,4.835c4.109,14.545,8.219,29.09,12.328,43.635c2.902-0.82,5.814-1.598,8.733-2.335
	c-1.491-5.91-2.982-11.821-4.473-17.732C218.403,206.195,219.586,205.904,220.77,205.619z M221.619,186.642
	c1.442-0.325,2.787-0.132,4.019,0.572c1.251,0.681,2.006,1.667,2.274,2.948c0.264,1.263-0.031,2.466-0.869,3.614
	c-0.821,1.124-1.928,1.839-3.331,2.155c-2.885,0.65-5.763,1.337-8.635,2.061c-0.776-3.078-1.553-6.155-2.329-9.233
	C215.698,188.016,218.656,187.31,221.619,186.642z M251.671,172.368c-2.536,15.587-4.5,31.183-5.894,46.758
	c3.047-0.524,6.101-1.003,9.158-1.438c0.28-2.36,0.573-4.721,0.88-7.081c4.234-0.577,8.476-1.071,12.725-1.481
	c0.84,2.227,1.667,4.457,2.481,6.689c3.072-0.279,6.146-0.514,9.223-0.704c-4.925-14.839-10.413-29.567-16.458-44.154
	C259.742,171.36,255.703,171.831,251.671,172.368z M259.427,186.387c1.997,4.728,3.934,9.472,5.811,14.23
	c-2.724,0.284-5.445,0.6-8.163,0.95C257.799,196.506,258.583,191.446,259.427,186.387z M299.686,177.019
	c3.018-0.003,5.417,1.383,7.139,4.116c2.886-1.405,5.805-2.776,8.759-4.109c-3.478-5.797-8.868-8.807-15.906-8.803
	c-5.027,0.005-9.322,1.642-12.748,4.83c-3.431,3.192-4.967,6.966-4.747,11.25c0.27,5.313,0.541,10.627,0.81,15.94
	c0.221,4.289,2.034,7.868,5.31,10.813c3.28,2.947,7.04,4.387,11.416,4.383c6.116-0.003,10.875-2.663,14.546-8.154
	c-2.583-1.575-5.201-3.119-7.855-4.631c-1.722,2.688-3.934,4.017-6.698,4.019c-1.963,0.002-3.655-0.655-5.101-1.982
	c-1.424-1.327-2.17-2.92-2.213-4.794c-0.12-5.319-0.241-10.638-0.362-15.957c-0.043-1.874,0.667-3.504,2.157-4.88
	C295.704,177.706,297.544,177.021,299.686,177.019z M318.88,169.648c-0.151,2.918-0.302,5.836-0.453,8.754
	c3.385,0.175,6.767,0.399,10.145,0.67c-0.976,12.153-1.953,24.306-2.93,36.459c2.992,0.241,5.981,0.523,8.967,0.848
	c1.319-12.121,2.636-24.242,3.955-36.362c3.371,0.366,6.739,0.781,10.102,1.244c0.399-2.895,0.797-5.789,1.196-8.684
	C339.572,171.159,329.234,170.183,318.88,169.648z M349.142,218.296c2.971,0.461,5.938,0.965,8.898,1.511
	c2.741-14.863,5.481-29.727,8.222-44.591c-3.381-0.623-6.768-1.198-10.16-1.725C353.782,188.426,351.462,203.36,349.142,218.296z
	 M390.338,188.616c2.943,0.769,4.935,2.723,5.922,5.809c3.173-0.621,6.372-1.197,9.596-1.727
	c-1.929-6.502-6.432-10.798-13.296-12.592c-4.903-1.28-9.499-0.79-13.64,1.423c-4.147,2.215-6.597,5.476-7.468,9.676
	c-1.084,5.209-2.168,10.418-3.252,15.626c-0.872,4.206-0.017,8.128,2.424,11.81c2.444,3.685,5.74,6.037,10.007,7.151
	c5.964,1.559,11.29,0.208,16.267-4.16c-2.124-2.187-4.291-4.353-6.499-6.496c-2.362,2.159-4.858,2.878-7.553,2.174
	c-1.915-0.5-3.397-1.566-4.468-3.219c-1.05-1.646-1.373-3.378-0.94-5.202c1.23-5.176,2.461-10.352,3.691-15.528
	c0.434-1.823,1.538-3.22,3.336-4.171C386.283,188.265,388.25,188.071,390.338,188.616z M413.941,187.375
	c-4.712,14.361-9.424,28.722-14.136,43.082c7.643,2.508,15.214,5.312,22.698,8.412c1.118-2.7,2.236-5.399,3.354-8.099
	c-4.797-1.987-9.629-3.855-14.492-5.606c1.075-2.986,2.15-5.973,3.224-8.959c3.839,1.382,7.659,2.835,11.458,4.359
	c1.089-2.712,2.177-5.424,3.266-8.136c-3.898-1.564-7.816-3.055-11.754-4.472c1.075-2.986,2.15-5.973,3.224-8.959
	c5.274,1.898,10.515,3.924,15.717,6.079c1.118-2.7,2.236-5.399,3.354-8.099C431.311,193.44,422.667,190.238,413.941,187.375z
	 M182.606,344.62v-12.28c0.003-10.632-4.326-20.31-11.296-27.272c-6.962-6.971-16.64-11.3-27.272-11.297
	c-10.633-0.003-20.312,4.326-27.273,11.297c-6.971,6.962-11.299,16.64-11.297,27.272v12.28h11.404l0-12.28
	c0.003-7.519,3.032-14.274,7.957-19.208c4.934-4.925,11.689-7.954,19.209-7.957c7.519,0.003,14.274,3.032,19.208,7.957
	c4.925,4.934,7.953,11.689,7.956,19.208v12.28H182.606L182.606,344.62z M494.531,344.62v-12.28
	c0.003-10.632-4.326-20.311-11.297-27.272c-6.962-6.971-16.64-11.3-27.273-11.297c-10.632-0.003-20.31,4.326-27.272,11.297
	c-6.971,6.962-11.299,16.64-11.296,27.272v12.28h11.404l0-12.28c0.003-7.519,3.032-14.275,7.956-19.208
	c4.934-4.925,11.689-7.954,19.208-7.957c7.52,0.003,14.275,3.032,19.209,7.957c4.925,4.934,7.954,11.689,7.957,19.208v12.28H494.531
	L494.531,344.62z M255.878,329.748c-4.106,0-7.435,3.329-7.435,7.436s3.33,7.436,7.435,7.436c4.107,0,7.437-3.329,7.437-7.436
	S259.986,329.748,255.878,329.748z M344.12,329.748c-4.106,0-7.435,3.329-7.435,7.436s3.33,7.436,7.435,7.436
	c4.107,0,7.437-3.329,7.437-7.436S348.227,329.748,344.12,329.748z M600,329.244h-80.217l29.005,24.087l-17.96,51.314H600
	l-25.433-37.517L600,329.244z M62.418,404.645l-11.001-51.448l28.799-23.953H0l25.427,37.885L0,404.645H62.418z M511.792,351.558
	v-22.314l26.86,22.314H511.792z M88.211,351.558v-22.314l-26.869,22.314H88.211z M265.594,400.42h6.946l-3.487-13.427
	L265.594,400.42z M132.495,381.446h-5.821v25.262h6.26c1.482,0,2.746-0.531,3.789-1.592c1.061-1.062,1.592-2.325,1.592-3.789
	v-14.031c0-1.611-0.567-2.984-1.702-4.119C135.461,382.023,134.087,381.446,132.495,381.446z M58.237,356.376l16.126,75.401H515.32
	l26.43-75.401H58.237z M146.306,401.326c0,3.662-1.309,6.801-3.927,9.418c-2.617,2.617-5.766,3.927-9.445,3.927h-14.25v-41.187
	h13.811c3.789,0,7.038,1.355,9.747,4.064c2.709,2.69,4.064,5.94,4.064,9.747V401.326z M169.854,414.67h-7.991v-41.187h7.991V414.67z
	 M205.648,412.363c-2.343,2.105-5.097,3.158-8.265,3.158c-4.87,0-8.64-2.307-11.312-6.92l6.892-3.98
	c1.116,1.959,2.59,2.937,4.42,2.937c1.044,0,1.941-0.275,2.691-0.824c0.841-0.622,1.263-1.445,1.263-2.472
	c0-1.226-0.622-2.443-1.867-3.651c-0.751-0.751-2.188-1.831-4.311-3.24l-0.851-0.604l-0.878-0.576
	c-0.641-0.457-1.209-0.88-1.703-1.264c-1.263-0.988-2.306-1.949-3.13-2.882c-2.105-2.435-3.158-5.199-3.158-8.292
	c0-3.148,1.208-5.811,3.625-7.99c2.343-2.086,5.115-3.13,8.319-3.13c4.852,0,8.604,2.297,11.258,6.892l-6.893,3.982
	c-1.098-1.941-2.553-2.911-4.366-2.911c-1.061,0-1.967,0.274-2.718,0.823c-0.843,0.623-1.263,1.438-1.263,2.444
	c0,1.245,0.612,2.472,1.839,3.68c0.769,0.732,2.215,1.812,4.338,3.239c0.751,0.513,1.318,0.907,1.702,1.181
	c0.659,0.457,1.236,0.879,1.731,1.263c1.263,0.97,2.306,1.931,3.129,2.883c2.105,2.416,3.158,5.18,3.158,8.291
	C209.3,407.55,208.083,410.204,205.648,412.363z M245.973,381.446h-8.1v33.225h-7.99v-33.225h-8.1v-7.962h24.191V381.446z
	 M276.248,414.67l-1.62-6.261h-11.121l-1.62,6.261h-8.21l10.653-41.187h9.473l10.654,41.187H276.248z M326.017,414.67h-7.715
	l-11.505-22.927v22.927h-7.963v-41.187h7.716l11.478,22.927v-22.927h7.989V414.67z M352.118,405.719
	c1.227,1.227,2.691,1.839,4.394,1.839c2.397,0,4.31-1.235,5.737-3.707l6.892,3.982c-2.965,5.126-7.175,7.689-12.63,7.689
	c-3.9,0-7.241-1.391-10.023-4.174c-2.782-2.782-4.174-6.123-4.174-10.022v-14.498c0-3.899,1.392-7.24,4.174-10.023
	c2.782-2.782,6.123-4.174,10.023-4.174c5.454,0,9.665,2.564,12.63,7.688l-6.892,3.982c-1.427-2.453-3.341-3.68-5.737-3.68
	c-1.703,0-3.167,0.604-4.394,1.813c-1.208,1.226-1.812,2.69-1.812,4.393v14.498C350.306,403.028,350.91,404.492,352.118,405.719z
	 M391.702,414.67h-7.99v-41.187h7.99V414.67z M436.612,414.67h-7.715l-11.505-22.927v22.927h-7.963v-41.187h7.716l11.478,22.927
	v-22.927h7.99V414.67z M481.303,401.326c0,3.899-1.392,7.24-4.174,10.022c-2.764,2.783-6.105,4.174-10.022,4.174
	c-3.899,0-7.24-1.391-10.023-4.174c-2.782-2.782-4.173-6.123-4.173-10.022v-14.498c0-3.899,1.391-7.24,4.173-10.023
	c2.783-2.782,6.124-4.174,10.023-4.174c5.437,0,9.647,2.564,12.631,7.688l-6.892,3.982c-1.446-2.453-3.36-3.68-5.738-3.68
	c-1.721,0-3.185,0.604-4.393,1.813c-1.227,1.226-1.839,2.69-1.839,4.393v14.498c0,1.702,0.612,3.166,1.839,4.393
	c1.227,1.227,2.69,1.839,4.393,1.839c1.72,0,3.185-0.612,4.393-1.839c1.226-1.227,1.839-2.691,1.839-4.393v-3.268h-8.1v-7.963
	h16.063V401.326z"/>
<path id="Color_x5F_2" fill="#F08810" d="M163.138,241.005c-4.87-4.879-11.659-7.914-19.1-7.911
	c-7.441-0.003-14.23,3.032-19.1,7.912c-4.879,4.87-7.914,11.659-7.911,19.1c-0.003,7.441,3.032,14.23,7.911,19.1
	c4.87,4.879,11.659,7.914,19.1,7.911c7.441,0.003,14.23-3.032,19.1-7.911c4.879-4.87,7.915-11.659,7.912-19.1
	C171.053,252.665,168.017,245.876,163.138,241.005z M155.074,271.142c-2.842,2.833-6.708,4.568-11.036,4.571
	c-4.329-0.003-8.194-1.738-11.036-4.571c-2.833-2.842-4.568-6.708-4.571-11.036c0.003-4.328,1.738-8.194,4.571-11.036
	c2.842-2.833,6.708-4.569,11.036-4.571c4.327,0.003,8.193,1.738,11.036,4.572c2.833,2.842,4.569,6.708,4.572,11.036
	C159.643,264.433,157.908,268.299,155.074,271.142z M475.062,241.006c-4.87-4.879-11.659-7.915-19.1-7.912
	c-7.441-0.003-14.23,3.032-19.099,7.912c-4.879,4.87-7.914,11.659-7.91,19.1c-0.003,7.441,3.032,14.23,7.911,19.1
	c4.87,4.879,11.658,7.914,19.099,7.911c7.441,0.003,14.23-3.032,19.1-7.911c4.879-4.87,7.914-11.659,7.911-19.1
	C482.976,252.665,479.941,245.876,475.062,241.006z M466.998,271.142c-2.842,2.833-6.708,4.568-11.036,4.571
	c-4.328-0.003-8.193-1.738-11.035-4.571c-2.833-2.842-4.568-6.708-4.571-11.036c0.003-4.328,1.738-8.194,4.571-11.036
	c2.842-2.833,6.707-4.569,11.035-4.571c4.328,0.003,8.194,1.738,11.036,4.571c2.833,2.842,4.568,6.708,4.571,11.036
	C471.566,264.434,469.831,268.299,466.998,271.142z M219.194,337.184c0,4.107-3.328,7.436-7.435,7.436s-7.437-3.329-7.437-7.436
	s3.33-7.436,7.437-7.436S219.194,333.077,219.194,337.184z M307.437,337.184c0,4.107-3.33,7.436-7.437,7.436
	s-7.437-3.329-7.437-7.436s3.33-7.436,7.437-7.436S307.437,333.077,307.437,337.184z M395.678,337.184
	c0,4.107-3.33,7.436-7.437,7.436c-4.107,0-7.436-3.329-7.436-7.436s3.329-7.436,7.436-7.436
	C392.349,329.748,395.678,333.077,395.678,337.184z M207.804,272.293c1.225,0.78,2.862,1.169,4.911,1.169
	c4.699,0,8.631,1.325,11.794,3.976c3.341,2.829,5.011,6.548,5.011,11.159c0,4.41-1.716,8.175-5.145,11.293
	c-3.32,3.007-7.206,4.51-11.661,4.51c-6.66,0-11.783-3.107-15.369-9.321l4.21-2.439l4.176-2.439c1.737,3.007,4.064,4.51,6.983,4.51
	c1.782,0,3.385-0.568,4.811-1.704c1.514-1.203,2.272-2.673,2.272-4.41c0-1.915-0.735-3.341-2.205-4.277
	c-1.225-0.779-2.851-1.169-4.878-1.169c-4.7,0-8.631-1.325-11.794-3.976c-3.341-2.829-5.011-6.548-5.011-11.159
	c0-4.41,1.715-8.163,5.145-11.259c3.318-3.029,7.205-4.544,11.66-4.544c6.637,0,11.76,3.118,15.369,9.355l-8.419,4.845
	c-1.715-2.984-4.032-4.477-6.949-4.477c-1.782,0-3.386,0.557-4.811,1.67c-1.537,1.203-2.305,2.673-2.305,4.41
	C205.599,269.932,206.334,271.358,207.804,272.293z M264.715,257.292c3.385,3.385,5.078,7.45,5.078,12.194v1.737
	c0,4.767-1.693,8.843-5.078,12.229c-3.364,3.363-7.429,5.045-12.195,5.045c-4.744,0-8.809-1.681-12.195-5.045
	c-3.386-3.385-5.078-7.462-5.078-12.229v-1.737c0-4.744,1.692-8.809,5.078-12.194c3.385-3.385,7.451-5.079,12.195-5.079
	C257.287,252.213,261.352,253.906,264.715,257.292z M268.324,303.364h-31.573v-9.689h31.573V303.364z M247.175,264.141
	c-1.492,1.493-2.238,3.275-2.238,5.346v1.737c0,2.094,0.746,3.887,2.238,5.379c1.47,1.47,3.251,2.205,5.346,2.205
	c2.093,0,3.875-0.735,5.346-2.205c1.492-1.492,2.238-3.285,2.238-5.379v-1.737c0-2.071-0.746-3.853-2.238-5.346
	c-1.47-1.47-3.252-2.205-5.346-2.205C250.426,261.936,248.645,262.671,247.175,264.141z M288.884,264.141
	c-1.47,1.493-2.205,3.275-2.205,5.346v17.641c0,2.072,0.735,3.854,2.205,5.346c1.492,1.492,3.274,2.239,5.346,2.239
	c2.918,0,5.245-1.504,6.982-4.51l8.387,4.844c-3.609,6.237-8.732,9.355-15.37,9.355c-4.744,0-8.809-1.693-12.195-5.079
	c-3.385-3.385-5.078-7.45-5.078-12.195v-17.641c0-4.744,1.693-8.809,5.078-12.194s7.451-5.079,12.195-5.079
	c6.638,0,11.761,3.118,15.37,9.355l-8.387,4.845c-1.737-2.984-4.064-4.477-6.982-4.477
	C292.158,261.936,290.376,262.671,288.884,264.141z M317.062,253.249h9.722v50.115h-9.722V253.249z M358.137,253.249l12.963,50.115
	h-9.989l-1.972-7.618h-13.531l-1.97,7.618h-9.99l12.964-50.115H358.137z M348.148,286.025h8.453l-4.244-16.338L348.148,286.025z
	 M388.02,253.249v40.426h16.07v9.689h-25.759v-50.115H388.02z"/>
</svg>
