<?xml version="1.0" encoding="utf-8"?>
<!-- Generator: Adobe Illustrator 16.0.0, SVG Export Plug-In . SVG Version: 6.00 Build 0)  -->
<!DOCTYPE svg PUBLIC "-//W3C//DTD SVG 1.1//EN" "http://www.w3.org/Graphics/SVG/1.1/DTD/svg11.dtd">
<svg version="1.1" id="Layer_1" xmlns="http://www.w3.org/2000/svg" xmlns:xlink="http://www.w3.org/1999/xlink" x="0px" y="0px"
	 width="600px" height="600px" viewBox="0 0 600 600" enable-background="new 0 0 600 600" xml:space="preserve">
<path id="color_x5F_3" fill="#E09C68" d="M273.455,148.818c-11.353-2.943-19.529-8.453-23.966-10.512
	c-1.302-5.57-2.395-13.951-3.023-19.621c8.207,2.107,18.64,3.955,26.619,5.223C271.383,131.842,272.83,142.684,273.455,148.818z
	 M253.273,150.078c6.614,16.412,22.494,24.451,43.59,29.529l-5.749,21.768c0,0,24.598,25.859,49.196,0l-6.081-20.955
	c18.907-4.006,29.819-15.127,36.249-29.334c-8.738,7.008-16.946,11.709-24.703,13.711
	C333.564,167.947,282.707,171.943,253.273,150.078z M237.716,114.76c0,0-16.42-0.217-16.256,13.473
	c0.131,10.963,8.905,18.801,19.954,14.02C241.415,142.252,236.875,131.156,237.716,114.76z M384.934,114.76
	c0.842,16.396-3.697,27.492-3.697,27.492c11.049,4.781,19.822-3.057,19.953-14.02C401.354,114.543,384.934,114.76,384.934,114.76z
	 M250.392,83.529c0,0-5.785,13.336-4.485,29.346c6.031,1.035,18.662,3.037,29.578,3.672c0.015-0.033,0.028-0.066,0.043-0.1
	c0,0,35.783-13.439,70.572,0.156c13.07-0.66,29.031-3.436,33.141-4.18c1.352-16.078-4.607-28.895-4.607-28.895
	S322.65,76.707,250.392,83.529z M353.765,153.863c7.637-3.07,14.673-7.35,20.183-10.932c0.466-1.648,1.559-6.629,1.949-8.318
	c1.269-5.498,2.156-11.088,2.775-16.457c-7.416,2.484-17.909,4.389-26.471,5.658C353.639,129.617,354.6,143.262,353.765,153.863z"/>
<path id="color_x5F_2" fill="#0AB2E0" d="M431.969,315.721c0-0.484,0.094-0.971,0.283-1.457c1.133-3.77,1.793-8.33,1.983-13.68
	c0.125-4.682,0.251-9.334,0.378-13.953c0.059-1.824-0.229-4.545-0.867-8.162s-0.957-6.217-0.957-7.799
	c0-2.248,0.424-4.223,1.276-5.928c0.972-1.943,2.645-2.918,5.017-2.918c2.43,0,3.738,1.277,3.921,3.832
	c0.06,0.365,0,1.002-0.183,1.914s-0.273,1.49-0.273,1.732v19.516c-0.123,2.129-0.092,4.957,0.091,8.482
	c0.243,4.193,0.365,6.963,0.365,8.299c0,4.924-0.761,9.027-2.28,12.311c-0.67,1.52-1.885,2.279-3.647,2.279
	c-1.155,0-2.296-0.318-3.42-0.957C432.529,318.594,431.969,317.426,431.969,315.721z M324.629,284.703
	c2.006,2.25,3.525,5.26,4.561,9.029c0.364,1.398,0.547,2.766,0.547,4.104c0,4.742-2.279,9.516-6.84,14.316
	c-1.094,1.156-2.797,1.734-5.107,1.734c-1.641,0-3.009-0.305-4.104-0.912c-4.986-2.857-7.478-7.387-7.478-13.588
	c0-1.582,0.212-3.131,0.638-4.652c0.547-1.945,1.551-3.98,3.01-6.109c1.701-2.371,2.645-3.768,2.826-4.195
	c0.912-2.066,2.523-3.1,4.834-3.1C320.252,281.33,322.623,282.455,324.629,284.703z M322.076,299.113
	c0-2.857-1.064-5.473-3.192-7.844c-0.183-0.121-0.396-0.182-0.639-0.182c-0.974,0-2.174,0.957-3.602,2.871
	c-1.43,1.916-2.144,3.785-2.144,5.609c0,2.311,1.368,3.771,4.104,4.377c0.486,0.123,0.941,0.184,1.368,0.184
	C320.707,304.129,322.076,302.457,322.076,299.113z M331.902,426.711c-1.824,0-2.95,0.672-3.375,2.008
	c-0.487,1.582-0.729,3.557-0.729,5.928c0,0.607,0,1.582,0,2.918c0,1.275,0,2.25,0,2.918c0,4.377-0.82,7.965-2.457,10.762
	c-0.848,1.459-1.576,2.189-2.182,2.189c-0.123,0-0.244-0.031-0.365-0.094c-1.699-1.094-3.334-3.283-4.91-6.564
	c-1.758-3.709-3.229-6.111-4.412-7.205c-1.182-1.094-2.26-1.641-3.229-1.641c-1.031,0-2.184,0.637-3.457,1.914
	s-2.486,3.193-3.637,5.746c-1.396,3.162-2.442,5.258-3.139,6.293c-0.698,1.033-1.35,1.551-1.955,1.551
	c-0.365,0-0.728-0.215-1.091-0.641c-0.909-1.215-1.607-2.885-2.092-5.014c-0.365-1.764-0.729-3.559-1.091-5.381
	c-0.365-1.461-0.365-4.834,0-10.123c0.303-4.256-0.306-7.326-1.824-9.211c-0.852-1.033-2.006-1.551-3.465-1.551
	c-2.736,0-4.226,1.277-4.468,3.83c-0.426,4.742-0.639,8.664-0.639,11.766c0,10.029,2.28,18.025,6.84,23.982
	c1.154,1.461,2.978,2.189,5.472,2.189c2.31,0,4.468-0.576,6.475-1.732c1.277-0.73,2.857-2.555,4.742-5.473
	c1.58-2.613,2.584-3.889,3.01-3.83c0.364,0.063,1.322,1.309,2.873,3.738c1.55,2.434,2.993,3.953,4.331,4.561
	c1.581,0.73,3.16,1.094,4.742,1.094c2.31,0,4.528-0.697,6.657-2.096c5.836-3.951,8.755-10.699,8.755-20.246
	c0-2.371-0.152-5.107-0.456-8.207C336.461,428.172,334.82,426.711,331.902,426.711z M127.425,464.324
	c-19.309-7.039-15.888,20.523-15.888,20.523c-11.808-11.775-32.507-5.834-26.675,8.98c5.789,14.703,43.022,18.287,43.022,18.287
	S144.577,470.578,127.425,464.324z M301.136,41.043h7.37v7.367c0,1.26,1.029,2.289,2.287,2.289h3.557
	c1.259,0,2.288-1.029,2.288-2.289v-7.367h7.37c1.257,0,2.287-1.029,2.287-2.289v-3.557c0-1.26-1.03-2.287-2.287-2.287h-7.37v-7.371
	c0-1.258-1.029-2.287-2.288-2.287h-3.557c-1.258,0-2.287,1.029-2.287,2.287v7.371h-7.37c-1.259,0-2.288,1.027-2.288,2.287v3.557
	C298.848,40.014,299.877,41.043,301.136,41.043z M288.536,291.943c0.547,2.613,0.912,6.293,1.094,11.035
	c0.242,5.229,0.516,8.996,0.82,11.309c0.183,1.033,0.972,1.549,2.372,1.549c0.912,0,2.189-0.242,3.83-0.729
	c1.459-0.426,1.854-1.975,1.186-4.652c-0.365-7.902-0.639-12.615-0.821-14.135c-0.669-5.289-2.068-9.695-4.195-13.223
	c-0.853-0.242-1.673-0.365-2.462-0.365c-2.129,0-4.044,1.004-5.746,3.008c-0.669,0.73-2.038,2.799-4.104,6.203
	c0-0.242-0.274-0.607-0.821-1.096c0-0.668,0.167-1.625,0.501-2.873c0.333-1.244,0.501-2.172,0.501-2.781
	c0-0.484-0.061-0.91-0.182-1.275c-0.487-1.58-1.733-2.371-3.739-2.371c-1.765,0-2.918,0.639-3.466,1.916
	c-0.547,1.457-0.82,3.344-0.82,5.652c0,1.035,0.075,2.615,0.228,4.742c0.151,2.131,0.228,3.68,0.228,4.652
	c0-0.365-0.091,1.428-0.273,5.379c-0.062,2.189,0.06,3.953,0.365,5.291c0.486,1.885,1.55,2.826,3.191,2.826
	c1.581,0,2.766-0.684,3.557-2.053c0.789-1.367,2.127-4.482,4.013-9.346C285.252,296.717,286.833,293.828,288.536,291.943z
	 M348.6,323.236c0.668,1.945,1.945,2.918,3.83,2.918c2.006,0,3.069-1.033,3.191-3.1c0.121-1.703-1.156-21.594-1.156-24.512
	c0-1.336,0.06-2.34,0.182-3.01c4.561,0,7.418-0.09,8.572-0.273c3.284-0.424,5.229-1.611,5.838-3.557
	c0.121-0.424,0.182-0.82,0.182-1.186c0-1.762-1.581-2.645-4.742-2.645c0.242,0-2.523,0.273-8.299,0.82
	c0-7.295,1.186-13.496,3.557-18.604c0.425-1.336,0.273-2.371-0.455-3.1c-1.521-0.973-3.162-1.461-4.926-1.461
	c-2.918,0-4.499,1.219-4.741,3.648c-0.608,4.135-1.064,7.236-1.368,9.303c-0.123,1.641-0.244,3.314-0.365,5.016
	c-0.182,1.945-0.67,3.404-1.459,4.377c-0.791,0.973-2.371,1.703-4.742,2.189c-3.041,0.729-4.955,1.275-5.745,1.641
	c-1.581,1.035-2.371,2.189-2.371,3.465c0,1.035,0.517,1.887,1.55,2.555c0.852,0.607,1.824,0.912,2.92,0.912
	c2.43,0,4.893-0.943,7.386-2.828C346.408,297.572,348.052,321.715,348.6,323.236z M515.502,467.256
	c-7.166-19.26-25.927,1.221-25.927,1.221c1.304-16.625-16.644-28.525-24.136-14.477c-7.437,13.941,13.986,44.605,13.986,44.605
	S521.867,484.367,515.502,467.256z M439.803,422.152c-0.666-0.184-1.301-0.273-1.905-0.273c-1.692,0-3.567,1.094-5.622,3.283
	c-2.238,2.311-4.145,3.588-5.716,3.83c0-0.426,0-0.852,0-1.277c0-2.006-0.579-3.752-1.732-5.242
	c-1.156-1.49-2.524-2.234-4.104-2.234c-1.217,0-2.371,0.5-3.465,1.504c-1.095,1.004-1.642,2.234-1.642,3.693
	c0,1.094,0.395,2.676,1.186,4.742c0.851,2.25,1.337,3.861,1.459,4.834c1.154,9.482,1.61,16.932,1.368,22.342
	c-0.123,2.066,0.333,3.436,1.367,4.104c0.912,1.156,2.128,1.732,3.648,1.732c1.824,0,3.191-0.729,4.104-2.188
	c1.398-1.338,2.098-3.131,2.098-5.381c0-1.52-0.396-2.766-1.186-3.738c-0.973-1.277-1.459-2.555-1.459-3.83
	c0-0.791,0.167-1.475,0.502-2.053c0.333-0.578,0.547-1.627,0.639-3.146c0.09-1.518,0.349-2.613,0.774-3.283
	c1.276-1.885,3.45-4.088,6.521-6.611c3.069-2.521,5.182-4.605,6.338-6.248c0.425-0.547,0.639-1.063,0.639-1.549
	C443.613,424.189,442.342,423.186,439.803,422.152z M465.254,297.301c-0.183-3.525-0.215-6.354-0.092-8.482v-19.516
	c0-0.242,0.092-0.82,0.274-1.732s0.241-1.549,0.183-1.914c-0.183-2.555-1.49-3.832-3.922-3.832c-2.371,0-4.045,0.975-5.016,2.918
	c-0.853,1.705-1.277,3.68-1.277,5.928c0,1.582,0.32,4.182,0.957,7.799c0.64,3.617,0.928,6.338,0.867,8.162
	c-0.127,4.619-0.252,9.271-0.377,13.953c-0.189,5.35-0.852,9.91-1.984,13.68c-0.189,0.486-0.283,0.973-0.283,1.457
	c0,1.705,0.561,2.873,1.688,3.512c1.123,0.639,2.264,0.957,3.42,0.957c1.762,0,2.978-0.76,3.646-2.279
	c1.52-3.283,2.281-7.387,2.281-12.311C465.619,304.264,465.496,301.494,465.254,297.301z M415.965,319.629
	c-0.518-0.336-1.05-1.02-1.597-2.053c-0.487-0.852-0.943-1.275-1.368-1.275c-3.223-0.549-6.475-1.096-9.758-1.643
	c-3.588-0.912-6.142-2.674-7.66-5.289c-0.974-1.277-1.459-2.979-1.459-5.107c0-3.102,0.759-5.654,2.279-7.66
	c3.648-4.924,8.997-7.387,16.051-7.387c3.039,0,4.498,0.092,4.377,0.273c0.486-0.729,0.73-1.764,0.73-3.102
	c0-1.58-0.457-2.477-1.369-2.689c-0.912-0.211-1.823-0.318-2.735-0.318c-1.581,0-3.329,0.381-5.243,1.139
	c-1.916,0.762-3.785,1.477-5.609,2.143c-0.305,0.125-0.578,0.184-0.82,0.184c-0.973,0-1.764-0.699-2.371-2.098
	c-0.487-1.094-0.73-2.279-0.73-3.557c0-0.789,0.092-1.275,0.274-1.459c4.013-2.736,8.541-4.104,13.588-4.104
	c5.29,0,8.847,1.885,10.67,5.654c0.972,2.068,1.46,4.316,1.46,6.748c0,2.006-0.396,4.832-1.187,8.482
	c-0.912,4.012-1.459,6.93-1.642,8.754c-0.305,4.559-0.607,7.66-0.912,9.301c-0.729,3.709-1.885,5.564-3.465,5.564
	C416.981,320.131,416.479,319.961,415.965,319.629z M416.283,299.793c0-1.277-0.273-2.553-0.821-3.83
	c-3.101,0.67-6.171,1.309-9.21,1.916c-3.588,1.033-5.412,3.162-5.473,6.383c-0.061,1.398,1.277,2.586,4.014,3.557
	c2.37,0.912,4.742,1.367,7.113,1.367c1.396,0,2.188-0.211,2.37-0.637c0.183-0.852,0.577-2.371,1.186-4.561
	C416.01,302.287,416.283,300.887,416.283,299.793z M356.068,451.699c0,0.973,0.668,1.84,2.006,2.6
	c1.337,0.762,2.521,1.139,3.557,1.139c2.006,0,4.894-0.971,8.664-2.918c1.154,0.854,1.732,2.008,1.732,3.465
	c0,1.158-0.365,2.223-1.094,3.193c-0.73,0.973-1.674,1.551-2.828,1.732c-3.891,0.609-6.354,0.912-7.387,0.912
	c-2.067,0-3.921-0.365-5.563-1.094c-7.236-3.223-11.005-10.945-11.309-23.164c-0.061-4.135,1.154-7.584,3.648-10.352
	c2.492-2.766,5.684-4.148,9.575-4.148c4.134,0,7.797,1.566,10.989,4.695c3.191,3.133,4.756,6.795,4.696,10.99
	c-0.548,1.703-2.827,3.738-6.84,6.109c-4.985,2.98-7.751,4.742-8.299,5.289C356.584,450.637,356.068,451.152,356.068,451.699z
	 M363.637,436.471c0.243-0.486,0.365-0.973,0.365-1.459c0-1.277-0.67-2.311-2.006-3.102c-1.338-0.789-2.828-1.186-4.469-1.186
	c-1.217,0-2.25,0.244-3.101,0.73c-1.765,0.91-2.646,2.826-2.646,5.744c0,3.223,0.669,4.895,2.007,5.016
	C359.199,441.973,362.481,440.057,363.637,436.471z M408.14,426.895c0.972,2.068,1.459,4.316,1.459,6.748
	c0,2.006-0.396,4.834-1.186,8.482c-0.912,4.012-1.46,6.93-1.642,8.754c-0.305,4.559-0.608,7.66-0.912,9.303
	c-0.729,3.707-1.885,5.563-3.465,5.563c-0.487,0-0.989-0.17-1.505-0.502c-0.518-0.334-1.049-1.018-1.597-2.053
	c-0.486-0.85-0.943-1.275-1.367-1.275c-3.224-0.549-6.475-1.096-9.758-1.643c-3.588-0.91-6.143-2.674-7.661-5.289
	c-0.974-1.275-1.459-2.979-1.459-5.107c0-3.1,0.759-5.654,2.28-7.66c3.647-4.924,8.996-7.387,16.051-7.387
	c3.039,0,4.498,0.092,4.377,0.273c0.486-0.729,0.729-1.762,0.729-3.1c0-1.58-0.456-2.479-1.368-2.691
	c-0.912-0.211-1.824-0.318-2.736-0.318c-1.581,0-3.328,0.381-5.243,1.139c-1.915,0.762-3.784,1.477-5.608,2.145
	c-0.305,0.123-0.578,0.182-0.82,0.182c-0.974,0-1.764-0.699-2.371-2.098c-0.488-1.094-0.73-2.279-0.73-3.557
	c0-0.789,0.092-1.275,0.274-1.459c4.012-2.734,8.54-4.104,13.587-4.104C402.759,421.24,406.316,423.127,408.14,426.895z
	 M401.209,445.408c0-1.277-0.273-2.555-0.821-3.832c-3.101,0.67-6.171,1.309-9.21,1.916c-3.589,1.035-5.412,3.162-5.473,6.383
	c-0.062,1.4,1.277,2.586,4.014,3.559c2.37,0.91,4.741,1.367,7.112,1.367c1.397,0,2.188-0.213,2.371-0.639
	c0.183-0.852,0.577-2.371,1.186-4.561C400.936,447.9,401.209,446.502,401.209,445.408z"/>
<path id="color_x5F_1" fill="#196668" d="M204.822,278.119c-7.822-2.129-12.145-3.605-12.145-3.605
	c19.786-58.123,86.566-72.963,86.566-72.963s5.794,21.949,37.1,22.529c34.057,0.631,34.688-25.229,34.688-25.229
	c41.393,10.35,65.971,35.354,79.051,53.801c-8.322,4.115-9.463,14.316-9.463,14.316s-7.568-3.783-17.66-0.42
	s-14.295,13.875-14.295,13.875l-19.342-0.42c0,0,0.842-1.262,0.842-13.035s-20.604-12.613-26.49-8.41
	c-4.766,3.404-6.308,22.707-6.308,22.707l-4.204,0.84c-1.682-4.205-5.045-12.193-15.558-10.932c-8.349,1-13.875,8.408-13.875,8.408
	s0-4.203-7.569-6.727c-7.568-2.521-13.455,5.047-13.455,5.047s-5.045-8.41-14.296-4.205c-6.093,2.77-7.078,10.645-7.041,15.699
	c-2.86-0.387-5.651-0.789-8.37-1.205c-0.827-6.959-4.064-19.338-16.545-22.904C223.16,261.49,210.346,272.461,204.822,278.119z
	 M239.407,40.83c-0.863-1.91-0.311-4.637,1.229-6.063c0,0,37.606-34.768,71.915-34.768c38.118,0,72.045,34.633,72.045,34.633
	c1.467,1.498,1.961,4.287,1.097,6.197L374.35,65.904c-0.865,1.91-3.287,3.473-5.383,3.473H256.133c-2.097,0-4.519-1.563-5.383-3.473
	L239.407,40.83z M290.958,36.977c0,11.928,9.67,21.602,21.601,21.602c11.93,0,21.601-9.674,21.601-21.602
	c0-11.932-9.671-21.604-21.601-21.604C300.628,15.373,290.958,25.045,290.958,36.977z M470.75,520.51
	c0.596,0.953,0.893,2.26,0.893,3.928c0,3.016-0.755,5.473-2.261,7.377c-3.968,4.92-7.755,8.27-11.364,10.055
	c-3.611,1.785-8.073,2.758-13.388,2.916c-3.174,2.695-6.942,4.045-11.304,4.045c-4.127,0-7.28-0.951-9.461-2.855
	c-2.184-1.904-3.272-4.045-3.272-6.426c0-2.063,0.753-3.848,2.261-5.355c3.57-3.568,8.981-1.85,13.363-1.594
	c2.184,0.129-7.447-14.896-8.006-15.539c2.199,2.533-13.705,18.662-15.733,20.307c-6.667,5.396-14.876,8.846-23.536,8.846
	c-8.33,0-14.797-2.26-19.396-6.781c-0.842-0.828-1.578-1.729-2.266-2.666c-2.079,2.039-4.232,3.859-6.48,5.402
	c-3.926,2.697-8.389,4.045-13.387,4.045c-4.206,0-7.615-1.506-10.234-4.521c-4.521,2.936-9.242,4.441-14.16,4.521
	c-1.031,15.311-3.373,28.102-7.021,38.377c-3.649,10.273-9.004,15.41-16.065,15.41c-4.284,0-7.456-1.547-9.52-4.641
	c-2.062-3.094-3.094-7.379-3.094-12.852c0-7.775,1.785-16.838,5.354-27.191c1.048-3.037,2.283-6.178,3.666-9.396
	c-0.912,0.191-1.816,0.293-2.712,0.293c-2.618,0-5.019-0.893-7.199-2.678c-2.183-1.785-3.829-4.225-4.938-7.318
	c-4.126,6.664-9.323,9.996-15.589,9.996c-4.366,0-7.945-1.412-10.748-4.223c-4.896,3.418-10.705,4.84-16.595,6.023
	c-8.26,1.66-18.323,2.93-26.796,2.879c-10.04-0.061-20.469-2.057-29.506-6.523c-8.38-4.143-14.808-10.021-19.282-17.641
	c-4.477-7.617-6.713-16.473-6.713-26.566c0-13.998,2.642-26.426,7.927-37.279c5.285-10.857,12.449-19.26,21.497-25.211
	c9.045-5.949,19.09-8.928,30.138-8.928c10.284,0,18.091,2.643,23.424,7.928c5.332,5.285,7.999,12.262,7.999,20.924
	c0,5.807-1.023,10.475-3.068,13.996c-2.996,5.156-11.423,7.352-15.653,2.408c-5.459-6.383,3.373-17.156-3.117-24.227
	c-4.183-4.555-11.39-5.449-17.078-4.127c-25.913,6.029-38.723,44.119-29.332,66.844c2.314,5.6,7.17,12.121,12.4,15.367
	c14.811,9.191,41.674,7.598,57.099,0.451c0.407-0.188,0.824-0.412,1.248-0.65c-0.007-0.281-0.027-0.555-0.027-0.842
	c0-6.346,1.467-12.355,4.403-18.027c2.934-5.672,6.842-10.234,11.721-13.686c4.879-3.451,10.056-5.176,15.53-5.176
	c1.744,0,2.915,0.338,3.51,1.012c0.595,0.674,1.089,1.885,1.487,3.629c1.666-0.316,3.411-0.477,5.236-0.477
	c3.887,0,5.831,1.391,5.831,4.164c0,1.668-0.595,5.635-1.785,11.9c-1.825,9.125-2.736,15.471-2.736,19.041
	c0,1.189,0.297,2.143,0.893,2.855c0.595,0.715,1.368,1.07,2.32,1.07c1.506,0,3.332-0.971,5.474-2.914
	c1.573-1.428,3.556-3.514,5.94-6.244c0.553-0.951,1.098-1.896,1.674-2.859c0-11.582-0.079-19.635-0.237-24.156
	c-0.08-2.301,0.833-4.125,2.737-5.475c1.904-1.348,4.283-2.023,7.14-2.023c1.666,0,2.874,0.338,3.63,1.012
	c0.752,0.676,1.169,2.004,1.249,3.986c0,1.984,0.039,3.451,0.119,4.402c2.538-3.172,5.037-5.453,7.497-6.842
	c2.457-1.387,5.076-2.082,7.854-2.082c4.441,0,8.072,1.785,10.889,5.354c2.814,3.57,4.225,8.252,4.225,14.043
	c0,4.207-0.676,8.291-2.023,12.256c-1.35,3.969-3.213,7.578-5.593,10.83c1.666,0.477,3.054,0.713,4.165,0.713
	c2.618,0,5.117-0.951,7.496-2.855c1.334-1.066,2.887-2.547,4.645-4.41c-0.229-1.586-0.361-3.24-0.361-4.99
	c0-5.475,1.148-10.57,3.451-15.293c2.299-4.719,5.492-8.467,9.579-11.244c4.085-2.775,8.705-4.166,13.862-4.166
	c4.602,0,8.289,1.369,11.067,4.107c2.776,2.736,4.165,6.445,4.165,11.125c0,5.475-1.964,10.176-5.891,14.102
	c-3.927,3.928-10.572,7.041-19.932,9.342c1.982,3.65,5.75,5.475,11.305,5.475c15.904,0,25.806-15.684,31.771-28.264
	c1.824-3.848,3.608-7.832,5.354-11.959c1.506-3.49,4.641-5.234,9.4-5.234c2.22,0,3.767,0.197,4.642,0.594
	c0.871,0.398,1.309,1.031,1.309,1.904c0,0.477-0.16,1.23-0.477,2.262c-0.318,1.031-0.754,2.063-1.309,3.092
	c-1.428,2.857-2.143,5.277-2.143,7.26c0,1.189,0.418,2.5,1.25,3.928c4.117,7.059,11.602,12.635,11.602,21.537
	c0,0.795-0.079,1.906-0.237,3.334c3.886-1.508,8.449-5.514,13.685-12.02c0.952-1.109,2.023-1.666,3.213-1.666
	C469.342,519.082,470.156,519.559,470.75,520.51z M283.035,500.994c-3.332,0.08-6.407,1.328-9.223,3.748
	c-2.816,2.42-5.057,5.613-6.723,9.58c-1.666,3.969-2.499,8.17-2.499,12.613c0,2.459,0.495,4.283,1.488,5.475
	c0.991,1.189,2.359,1.783,4.105,1.783c1.744,0,3.41-1.029,4.998-3.092c1.586-2.063,2.737-4.799,3.451-8.211L283.035,500.994z
	 M308.976,539.549c-3.412,7.932-6.11,15.51-8.092,22.729s-2.975,13.287-2.975,18.209c0,2.537,0.298,4.479,0.893,5.83
	c0.595,1.348,1.291,2.021,2.083,2.021c2.142,0,3.927-4.66,5.355-13.982C307.667,565.033,308.578,553.432,308.976,539.549z
	 M339.439,509.205c0-2.379-0.477-4.184-1.428-5.414c-0.953-1.229-2.223-1.846-3.809-1.846c-2.855,0-6.307,3.016-10.353,9.045
	c-0.08,3.49-0.119,8.607-0.119,15.35c0,3.65-0.041,6.467-0.119,8.449c2.856-0.635,5.493-2.201,7.913-4.701
	c2.42-2.498,4.344-5.592,5.771-9.281C338.725,517.119,339.439,513.25,339.439,509.205z M377.041,519.559
	c4.68-1.111,8.369-2.775,11.066-4.998c2.696-2.221,4.047-4.799,4.047-7.734c0-1.508-0.418-2.719-1.25-3.631
	c-0.834-0.91-1.963-1.369-3.391-1.369c-2.937,0-5.415,1.707-7.438,5.117c-2.022,3.412-3.034,7.537-3.034,12.377V519.559z
	 M505.281,376.205c0,3.016-0.754,5.473-2.26,7.377c-3.969,4.92-7.756,8.27-11.365,10.055c-3.611,1.785-8.073,2.758-13.387,2.916
	c-3.174,2.695-6.943,4.045-11.305,4.045c-4.127,0-7.279-0.951-9.461-2.855c-2.183-1.904-3.272-4.045-3.272-6.426
	c0-2.063,0.753-3.848,2.261-5.355c1.506-1.504,3.729-2.26,6.664-2.26c1.03,0,2.24,0.1,3.629,0.297
	c1.388,0.199,2.44,0.338,3.154,0.416c-0.098-0.01-5.654-16.381-8.092-15.588c-7.875,14.986-21.08,29.154-39.27,29.154
	c-8.328,0-14.796-2.26-19.396-6.783c-4.084-4.012-6.346-9.346-6.805-15.982c-2.325,0.379-4.727,0.646-7.235,0.752
	c-1.508,6.662-4.484,12-8.926,16.006c-4.443,4.006-9.48,6.008-15.113,6.008c-4.76,0-8.825-1.148-12.196-3.451
	c-3.372-2.301-5.931-5.355-7.676-9.162c-0.894-1.951-1.556-3.986-1.991-6.105c-2.363,0.973-4.831,1.465-7.408,1.465
	c-4.205,0-7.397-1.072-9.578-3.215c-2.184-2.141-3.273-5.037-3.273-8.686c0-1.191,0.119-2.381,0.357-3.57
	c0.158-1.586,0.238-2.656,0.238-3.213c0-1.268-0.438-1.904-1.309-1.904c-1.19,0-2.758,1.33-4.701,3.988
	c-1.944,2.658-3.867,6.168-5.771,10.529c-1.903,4.365-3.451,8.967-4.641,13.805c-0.874,3.73-1.885,6.246-3.035,7.557
	c-1.15,1.309-2.956,1.963-5.415,1.963c-3.015,0-5.137-1.586-6.366-4.76c-0.402-1.037-0.732-2.299-1.003-3.742
	c-1.833,1.375-3.87,2.703-6.136,3.98c-5.355,3.016-11.087,4.521-17.195,4.521c-8.33,0-14.797-2.26-19.396-6.783
	c-0.999-0.98-1.867-2.055-2.649-3.191c-9.014,10.398-18.587,15.607-28.718,15.607c-9.237,0-16.618-3.57-22.139-10.713
	c-5.523-7.141-8.285-17.377-8.285-30.709c0-3.236,0.143-6.475,0.429-9.713c-6.285,1.143-19.202,2.654-21.01,2.75
	c-1.905,9.711-8.556,63.484-11.983,77.576c-2,8.283-5.104,11.982-10.722,11.982c-6.095,0-9.847-2.316-9.847-7.842
	c0-1.234,0.237-2.949,0.715-5.141c3.236-13.045,9.792-65.957,11.698-75.006l-6.856,0.287c-3.142,0-5.427-0.549-6.855-1.645
	c-1.428-1.092-2.143-2.879-2.143-5.355c0-3.143,0.904-5.449,2.714-6.928c1.808-1.475,4.807-2.307,8.999-2.5l7.57-0.285
	c2.476-13.426,3.714-23.662,3.714-30.709c0-4.475-0.667-7.521-2-9.141c-1.335-1.619-3.096-2.43-5.285-2.43
	c-6.667,0-14.19,5.572-22.568,16.713c-1.239,1.619-2.62,2.428-4.143,2.428c-1.335,0-2.478-0.619-3.428-1.857
	c-0.951-1.236-1.428-2.809-1.428-4.713c0-2.951,1.191-6.094,3.57-9.428c4.189-5.807,9.474-10.592,15.855-14.355
	c6.378-3.76,12.855-5.641,19.425-5.641c6.189,0,10.974,2.119,14.354,6.355c3.379,4.238,5.071,10.834,5.071,19.783
	c0,7.904-1.142,18.617-3.428,32.139c0,0,15.439-0.941,19.724-1.609c1.714-10.473,4.332-20.281,7.856-29.422
	c3.521-9.143,7.903-16.568,13.141-22.283c5.236-5.713,11.092-8.57,17.569-8.57c4.76,0,8.521,1.883,11.284,5.643
	c2.76,3.762,4.142,8.689,4.142,14.783c0,23.617-12.047,39.994-36.137,49.135c-0.286,3.811-0.429,7.764-0.429,11.855
	c0,9.998,1.237,17.094,3.714,21.281c2.475,4.193,6.018,5.512,10.427,6.285c10.964,1.926,17.631-4.582,21.448-9.768
	c-0.161-1.354-0.269-2.744-0.269-4.213c0-5.475,1.148-10.57,3.451-15.293c2.3-4.719,5.492-8.467,9.579-11.244
	c4.085-2.775,8.706-4.166,13.863-4.166c4.6,0,8.289,1.369,11.066,4.105c2.776,2.738,4.165,6.447,4.165,11.127
	c0,5.475-1.963,10.174-5.89,14.102s-10.572,7.041-19.932,9.342c1.982,3.648,5.751,5.475,11.305,5.475
	c3.57,0,7.635-1.252,12.197-3.75c3.339-1.828,6.345-4.076,9.026-6.736c0.211-9.434,1.652-18.441,4.36-27
	c0.714-2.299,1.883-3.986,3.51-5.057c1.625-1.07,3.907-1.607,6.843-1.607c1.586,0,2.696,0.199,3.332,0.596
	c0.635,0.398,0.952,1.152,0.952,2.262c0,1.27-2.861,14.645-2.861,14.645s13.233-12.939,16.368-14.764
	c3.133-1.824,6.01-2.738,8.627-2.738c5.156,0,7.734,2.58,7.734,7.734c0,1.033-0.356,3.533-1.07,7.498
	c-0.637,3.174-0.952,5.158-0.952,5.951c0,2.777,0.991,4.164,2.976,4.164c0.823,0,1.736-0.242,2.734-0.723
	c0.536-3.488,1.526-6.719,2.975-9.689c2.301-4.719,5.475-8.408,9.52-11.066c4.047-2.658,8.527-3.986,13.447-3.986
	c6.027,0,10.889,2.082,14.578,6.246c3.688,4.164,5.849,9.303,6.484,15.41c2.279-0.145,4.857-0.523,7.67-1.084
	c0.521-1.727,1.17-3.408,1.968-5.045c2.3-4.719,5.492-8.467,9.579-11.244c4.085-2.775,8.705-4.166,13.863-4.166
	c4.601,0,8.289,1.369,11.066,4.105c2.776,2.738,4.166,6.447,4.166,11.127c0,5.475-1.965,10.174-5.891,14.102
	c-3.928,3.928-10.572,7.041-19.932,9.342c1.981,3.648,5.75,5.475,11.304,5.475c20.716,0,30.483-24.521,37.127-40.223
	c1.506-3.49,4.642-5.234,9.401-5.234c2.219,0,3.766,0.197,4.641,0.594c0.872,0.398,1.309,1.031,1.309,1.904
	c0,0.477-0.16,1.23-0.477,2.262c-0.317,1.029-0.754,2.063-1.309,3.092c-1.428,2.857-2.143,5.277-2.143,7.26
	c0,1.189,0.418,2.5,1.25,3.928c0.833,1.428,2.121,3.211,3.867,5.354c2.539,3.332,4.463,6.17,5.771,8.508
	c1.31,2.342,1.963,4.9,1.963,7.676c0,0.795-0.078,1.904-0.236,3.332c3.885-1.506,8.449-5.512,13.685-12.018
	c0.952-1.111,2.022-1.666,3.212-1.666c1.031,0,1.846,0.475,2.439,1.428C504.984,373.229,505.281,374.537,505.281,376.205z
	 M208.528,332.91c7.617-3.143,13.235-7.617,16.854-13.426c3.618-5.809,5.428-13.283,5.428-22.426c0-2.189-0.381-3.902-1.143-5.141
	c-0.763-1.238-1.714-1.857-2.856-1.857c-2.096,0-4.31,1.904-6.642,5.713c-2.334,3.811-4.548,8.998-6.642,15.568
	C211.432,317.912,209.765,325.104,208.528,332.91z M256.105,371.324c4.68-1.109,8.369-2.775,11.067-4.996
	c2.696-2.221,4.046-4.801,4.046-7.736c0-1.506-0.417-2.717-1.25-3.629c-0.833-0.91-1.963-1.369-3.391-1.369
	c-2.936,0-5.415,1.707-7.438,5.117c-2.023,3.412-3.034,7.537-3.034,12.377V371.324z M376.409,373.348
	c-2.46-1.666-4.343-3.848-5.651-6.545c-1.311-2.695-1.965-5.551-1.965-8.566c0-1.27,0.119-2.539,0.357-3.809h-0.596
	c-3.174,0-5.812,1.527-7.912,4.582c-2.104,3.055-3.154,7.357-3.154,12.91c0,4.365,0.852,7.697,2.559,9.996
	c1.705,2.301,3.708,3.451,6.01,3.451c2.538,0,4.739-1.031,6.604-3.096C374.523,380.211,375.773,377.234,376.409,373.348z
	 M410.68,371.324c4.68-1.109,8.368-2.775,11.066-4.996c2.696-2.221,4.047-4.801,4.047-7.736c0-1.506-0.418-2.717-1.25-3.629
	c-0.834-0.91-1.964-1.369-3.392-1.369c-2.937,0-5.415,1.707-7.438,5.117c-2.021,3.412-3.033,7.537-3.033,12.377V371.324z"/>
</svg>
