<?xml version="1.0" encoding="utf-8"?>
<!-- Generator: Adobe Illustrator 24.1.0, SVG Export Plug-In . SVG Version: 6.00 Build 0)  -->
<svg version="1.1" id="Layer_1" xmlns="http://www.w3.org/2000/svg" xmlns:xlink="http://www.w3.org/1999/xlink" x="0px" y="0px"
	 width="600px" height="600px" viewBox="0 0 600 600" enable-background="new 0 0 600 600" xml:space="preserve">
<path id="Color_x5F_2" fill="#163B68" d="M15.152,365.903L1.858,354.546C0.689,353.547,0,351.974,0,350.302v-77.773
	c0-1.672,0.689-3.245,1.858-4.244l13.294-11.357c3.047-2.604,7.382-0.112,7.382,4.244v100.488
	C22.534,366.015,18.199,368.507,15.152,365.903z M368.999,181.933v248.894c0,4.144,5.516,6.515,9.394,4.038l16.918-10.806
	c1.488-0.951,2.365-2.448,2.365-4.038V192.739c0-1.59-0.877-3.087-2.365-4.038l-16.918-10.806
	C374.515,175.418,368.999,177.789,368.999,181.933z M203.345,418.513l-19.181,47.475l-84.034-29.995l-0.127-38.736l-21.066-4.333
	l0.159,50.215c0.012,5.035,3.588,9.356,8.531,10.311l101.054,34.854c4.943,0.955,9.871-1.724,11.757-6.392l23.874-59.086
	L203.345,418.513z"/>
<path id="Color_x5F_1" fill="#F08810" d="M435.909,158.153c-4.06,3.27-10.001,2.629-13.271-1.431
	c-3.27-4.06-2.629-10.001,1.431-13.271l95.225-76.693c4.06-3.27,10.001-2.629,13.271,1.431s2.629,10.001-1.431,13.271
	L435.909,158.153 M475.895,264.107l117.321-34.424c5.002-1.468,7.867-6.712,6.399-11.714c-1.468-5.002-6.712-7.867-11.714-6.399
	l-117.321,34.424c-5.002,1.468-7.867,6.712-6.399,11.714C465.649,262.709,470.894,265.574,475.895,264.107 M456.245,210.005
	l60.332-25.77c3.319-1.418,4.86-5.257,3.442-8.576c-1.418-3.319-5.257-4.86-8.576-3.442l-60.332,25.77
	c-3.319,1.418-4.86,5.257-3.442,8.576C449.087,209.881,452.926,211.422,456.245,210.005 M483.641,306.418l65.468,4.206
	c3.601,0.231,6.708-2.5,6.94-6.102c0.231-3.601-2.5-6.708-6.102-6.94l-65.468-4.206c-3.601-0.231-6.708,2.5-6.94,6.102
	C477.308,303.08,480.04,306.187,483.641,306.418 M452.501,404.839l55.82,34.469c3.07,1.896,7.096,0.944,8.993-2.126
	c1.896-3.07,0.944-7.096-2.126-8.992l-55.82-34.469c-3.07-1.896-7.096-0.944-8.993,2.127
	C448.479,398.917,449.431,402.943,452.501,404.839 M424.069,456.549l95.225,76.693c4.06,3.27,10.001,2.629,13.271-1.431
	c3.27-4.06,2.629-10.001-1.431-13.271l-95.225-76.693c-4.06-3.27-10.001-2.629-13.271,1.431
	C419.369,447.338,420.01,453.279,424.069,456.549 M470.581,358.462l117.321,34.424c5.002,1.468,10.246-1.397,11.714-6.399
	c1.467-5.002-1.397-10.246-6.399-11.714l-117.321-34.424c-5.002-1.467-10.246,1.397-11.714,6.399
	C462.714,351.75,465.579,356.995,470.581,358.462 M33.984,248.97v56.26l9.662-0.091l-0.006-23.497l13.213-1.2l-0.007-11.768
	l-13.209,1.715l-0.003-12.216l17.466-3.007l-0.008-11.919L33.984,248.97z M65.527,304.934l12.018-0.113l-0.073-65.031l-11.996,2.533
	L65.527,304.934z M110.765,305.993c5.943-0.031,11.51-1.297,16.657-3.848l4.813,2.161l7.786-0.073l-0.126-46.341l-32.727,4.249
	l0.026,13.729l15.755-1.431l0.027,11.976c-0.033,1.586-1.771,2.978-5.164,4.158c-1.225,0.448-2.568,0.818-4.023,1.109
	c-1.234,0.248-2.25,0.389-3.051,0.425c-3.205,0.142-5.919-0.789-8.162-2.772c-2.214-1.957-3.312-4.363-3.317-7.234l-0.041-24.432
	c-0.005-2.867,1.084-5.509,3.288-7.95c2.232-2.441,4.938-3.951,8.139-4.515c4.572-0.806,8.322,0.718,11.191,4.632l7.111-4.792
	l7.392-4.93c-6.423-8.257-15.103-11.087-25.721-8.801c-7.244,1.559-13.215,5.174-18.032,10.772
	c-4.683,5.443-6.973,11.261-6.965,17.568l0.031,23.468c0.008,6.316,2.316,11.639,7.019,16.06
	C97.512,303.726,103.504,306.031,110.765,305.993z M206.741,212.498l0.163,36.694l-34.938,4.536l-0.12-33.863l-19.767,4.173
	l0.243,80.079l19.821-0.187l-0.12-33.95l34.959-3.176l0.163,36.796l25.848-0.243l-0.491-96.299L206.741,212.498z M246.815,204.037
	l0.105,19.137l31.277-5.385l0.534,85.139l35.126-0.331l-0.651-90.836l40.621-6.994l-0.191-23.283L246.815,204.037z M44.333,323.666
	c1.815,0.073,3.278,2.03,4.38,5.889l5.412-5.971c-2.354-8.12-5.637-12.143-9.794-12.155c-2.908-0.008-5.36,2.08-7.373,6.226
	c-1.989,4.096-2.974,9.017-2.974,14.804v21.524c0,5.792,0.986,10.924,2.977,15.437c2.016,4.571,4.47,7.17,7.382,7.762
	c4.163,0.847,7.448-2.507,9.798-10.158l-5.42-7.097c-1.1,3.665-2.563,5.336-4.38,5.034c-1.278-0.212-2.369-1.327-3.277-3.339
	c-0.89-1.997-1.333-4.279-1.333-6.854l-0.002-21.914c0-2.572,0.442-4.761,1.331-6.572C41.967,324.489,43.057,323.614,44.333,323.666
	z M67.496,311.495c-3.332-0.01-6.136,2.223-8.435,6.654c-2.27,4.374-3.392,9.628-3.39,15.81l0.009,22.995
	c0.002,6.188,1.13,11.683,3.406,16.533c2.306,4.916,5.116,7.734,8.453,8.412c3.417,0.695,6.391-1.027,8.897-5.222
	c2.523-4.256,3.796-9.725,3.79-16.361l-0.021-24.659c-0.006-6.629-1.287-12.351-3.815-17.12
	C73.881,313.836,70.908,311.505,67.496,311.495z M67.504,324.598c1.491,0.06,2.771,1.11,3.835,3.16
	c1.086,2.093,1.633,4.563,1.635,7.399l0.017,24.169c0.002,2.871-0.542,5.23-1.626,7.071c-1.062,1.864-2.342,2.666-3.834,2.418
	c-1.464-0.243-2.715-1.45-3.755-3.613c-1.035-2.149-1.55-4.596-1.552-7.351l-0.012-23.439c-0.001-2.751,0.511-5.089,1.543-7.024
	C64.793,325.472,66.041,324.539,67.504,324.598z M105.163,313.15l-7.406,49.275l-7.239-49.375l-7.847-0.054l10.362,72.59
	l9.657,1.926l11.356-74.3L105.163,313.15z M117.533,390.471l9.215,1.838l-0.134-79.011l-9.199-0.063L117.533,390.471z
	 M134.391,313.351l0.148,80.511l18.217,3.633c4.964,0.99,9.297-0.875,12.956-5.672c3.719-4.875,5.592-11.24,5.573-19.032
	l-0.075-29.843c-0.02-8.092-1.991-15.072-5.859-20.863c-3.803-5.73-8.27-8.577-13.36-8.612L134.391,313.351z M152.026,329.674
	c2.125,0.094,3.978,1.359,5.548,3.809c1.557,2.43,2.344,5.32,2.351,8.658l0.067,29.102c0.007,3.04-0.718,5.552-2.167,7.527
	c-1.415,1.967-3.118,2.782-5.105,2.46l-8.192-1.328l-0.102-50.563L152.026,329.674z M221.001,354.597l-32.217-2.817l0.041,14.679
	l32.229,3.819L221.001,354.597z M236.96,314.056l0.072,19.364l9.011,0.397l0.319,82.344l16.146,3.22l-0.438-105.152L236.96,314.056z
	 M318.919,433.031c9.41,1.914,17.665-0.152,24.656-6.348c7.201-6.381,10.832-15.041,10.768-25.866l-0.287-49.069
	c-0.063-10.854-3.794-20.249-11.063-28.043c-7.054-7.669-15.324-11.454-24.703-11.481c-9.096-0.026-16.633,3.504-22.723,10.48
	c-6.007,6.782-8.941,14.976-8.896,24.683l0.023,4.978c0.045,9.714,3.059,18.351,9.139,26.031
	c6.169,7.791,13.757,12.352,22.872,13.585c4.687,0.634,9.249,0.205,13.683-1.312l0.038,7.045c0.022,4.118-1.342,7.468-4.075,10.034
	c-2.663,2.499-5.851,3.429-9.549,2.815c-5.076-0.843-9.134-4.489-12.218-10.899l-16.298,8.226
	C296.884,422.035,306.337,430.472,318.919,433.031z M305.396,348.598c-0.02-3.98,1.233-7.315,3.774-10.022
	c2.517-2.731,5.592-4.034,9.238-3.887c3.691,0.148,6.888,1.736,9.577,4.779c2.76,3.074,4.161,6.701,4.184,10.863l0.029,5.375
	c0.023,4.164-1.34,7.629-4.07,10.378c-2.66,2.677-5.844,3.823-9.539,3.461c-3.65-0.358-6.741-2.087-9.29-5.172
	c-2.571-3.113-3.859-6.65-3.878-10.633L305.396,348.598z"/>
</svg>
