<?xml version="1.0" encoding="utf-8"?>
<!-- Generator: Adobe Illustrator 24.1.0, SVG Export Plug-In . SVG Version: 6.00 Build 0)  -->
<svg version="1.1" id="Layer_1" xmlns="http://www.w3.org/2000/svg" xmlns:xlink="http://www.w3.org/1999/xlink" x="0px" y="0px"
	 width="600px" height="600px" viewBox="0 0 600 600" enable-background="new 0 0 600 600" xml:space="preserve">
<path id="Color_x5F_2" fill="#163B68" d="M67.714,363.869c1.013-0.69,2.081-1.139,3.209-1.348c1.127-0.208,2.224-0.06,3.288,0.443
	c1.066,0.503,1.875,1.257,2.43,2.26c0.554,1.004,0.888,2.115,0.996,3.336c0.034,0.797,0.007,1.582-0.085,2.357
	c-0.092,0.775-0.22,1.554-0.383,2.334c-0.248,0.818-0.54,1.578-0.871,2.278c-0.332,0.702-0.705,1.421-1.124,2.16
	c-0.451,0.956-0.91,1.891-1.375,2.8c-0.464,0.912-0.936,1.8-1.414,2.666c-0.241,0.511-0.459,0.972-0.655,1.385
	c-0.196,0.416-0.427,0.833-0.694,1.251c-0.417,0.739-0.856,1.449-1.314,2.128c-0.458,0.68-0.924,1.377-1.398,2.088
	c-0.353,0.458-0.575,0.781-0.666,0.972c0.928,0.362,1.84,0.753,2.736,1.176c0.897,0.424,1.81,0.818,2.736,1.177l4.172,1.62
	c0.393,0.186,0.771,0.365,1.135,0.536c0.365,0.173,0.729,0.308,1.097,0.402c0.618,0.292,1.241,0.567,1.872,0.825
	c0.633,0.261,1.196,0.664,1.692,1.209c0.808,0.616,1.367,1.461,1.682,2.538c0.355,0.556,0.538,1.185,0.549,1.887
	c0.21,0.72,0.248,1.434,0.117,2.147c0.01,0.704-0.163,1.434-0.522,2.193c-0.196,0.993-0.703,1.994-1.521,3
	c-0.263,0.263-0.524,0.528-0.785,0.791c-0.264,0.263-0.524,0.528-0.787,0.791c-0.343,0.148-0.661,0.309-0.948,0.483
	c-0.288,0.175-0.578,0.347-0.865,0.519c-0.801,0.244-1.472,0.428-2.016,0.558l-2.172,0.018c-0.763-0.127-1.482-0.349-2.158-0.668
	l-0.505-0.239l-1.18-0.559l-2.359-1.115l-4.548-2.149l-8.172-3.861c-2.695-1.274-5.345-2.644-7.951-4.109
	c-1.373-0.726-2.74-1.431-4.1-2.113c-1.361-0.682-2.701-1.374-4.019-2.075c-0.364-0.249-0.726-0.46-1.092-0.632
	c-0.365-0.172-0.716-0.338-1.054-0.498c-0.531-0.328-1.043-0.627-1.533-0.898c-0.49-0.271-0.958-0.588-1.404-0.955
	c-0.277-0.284-0.562-0.554-0.854-0.809c-0.292-0.255-0.577-0.524-0.853-0.811c-0.333-0.311-0.631-0.627-0.892-0.945
	c-0.262-0.316-0.518-0.65-0.765-1c-0.306-0.221-0.538-0.604-0.696-1.143c-0.191-0.322-0.324-0.695-0.399-1.118
	c-0.119-0.908-0.042-1.723,0.23-2.447c0.427-1.192,1.044-2.063,1.851-2.612c0.404-0.273,0.749-0.496,1.037-0.67
	c0.458-0.093,0.814-0.196,1.073-0.306c0.229-0.047,0.429-0.069,0.598-0.066c0.17,0.004,0.37-0.018,0.598-0.065l0.107-0.009
	l0.106-0.007l0.045-0.095c-0.053-0.178-0.062-0.376-0.028-0.594c0.033-0.216,0.024-0.415-0.029-0.595
	c-0.086-1.124,0.022-2.08,0.325-2.867c0.034-0.215,0.09-0.442,0.167-0.679c0.077-0.235,0.134-0.463,0.168-0.681
	c0.25-0.817,0.491-1.619,0.725-2.405c0.233-0.786,0.503-1.576,0.808-2.367c0.21-0.445,0.4-0.882,0.568-1.31
	c0.168-0.427,0.372-0.896,0.613-1.406c0.367-0.919,0.766-1.84,1.204-2.765c0.436-0.923,0.854-1.877,1.249-2.86
	c0.306-0.791,0.624-1.536,0.955-2.239c0.331-0.7,0.762-1.394,1.292-2.079c1.006-1.396,2.09-2.521,3.253-3.376
	c1.017-0.689,2.091-1.135,3.224-1.342c1.132-0.204,2.235-0.054,3.307,0.453c1.072,0.507,1.89,1.263,2.45,2.268
	c0.559,1.006,0.897,2.12,1.008,3.342c0.079,1.44-0.101,2.993-0.542,4.656c-0.193,0.844-0.456,1.616-0.787,2.318
	c-0.332,0.702-0.705,1.421-1.123,2.159c-0.507,0.93-0.98,1.858-1.417,2.781c-0.437,0.924-0.894,1.819-1.372,2.684
	c-0.242,0.512-0.473,0.967-0.697,1.367c-0.223,0.402-0.442,0.825-0.652,1.271c-0.416,0.739-0.855,1.449-1.314,2.127
	c-0.458,0.681-0.924,1.377-1.398,2.089c-0.146,0.165-0.286,0.352-0.42,0.561c-0.133,0.212-0.273,0.397-0.419,0.561
	c-0.411,0.581-0.747,1.003-1.01,1.266c0.113,0.053,0.246,0.098,0.401,0.132c0.156,0.034,0.289,0.078,0.401,0.13
	c1.461,0.538,2.909,1.067,4.342,1.588c1.434,0.524,2.882,1.053,4.342,1.588c0.06-0.127,0.092-0.229,0.093-0.305
	c0.002-0.076,0.033-0.178,0.093-0.305c0.128-0.561,0.267-1.001,0.418-1.321c0.25-0.818,0.477-1.626,0.683-2.426
	c0.207-0.797,0.463-1.594,0.768-2.385c0.21-0.445,0.413-0.876,0.61-1.292c0.196-0.413,0.386-0.888,0.571-1.426
	c0.367-0.918,0.766-1.839,1.204-2.764c0.436-0.924,0.853-1.877,1.249-2.86c0.306-0.791,0.624-1.536,0.955-2.239
	c0.331-0.7,0.762-1.394,1.292-2.079C65.475,365.852,66.555,364.726,67.714,363.869z M109.059,326.924
	c-0.114,0.027-0.285,0.066-0.512,0.118c-0.171,0.08-0.314,0.132-0.427,0.157c-0.114,0.026-0.255,0.079-0.427,0.156
	c-0.285,0.182-0.563,0.347-0.833,0.496c-0.271,0.15-0.52,0.328-0.749,0.534l-0.235,0.069c-0.07,0.009-0.163,0.063-0.277,0.165
	l-0.086,0.078l-0.085,0.077c-0.171,0.08-0.434,0.327-0.792,0.747c-0.357,0.419-0.621,0.669-0.792,0.745
	c-0.515,0.696-0.975,1.496-1.378,2.396c-0.202,0.45-0.402,0.862-0.604,1.235c-0.201,0.374-0.388,0.754-0.561,1.139
	c-0.375,0.838-0.755,1.652-1.143,2.443c-0.388,0.792-0.755,1.573-1.101,2.346c-0.689,1.391-1.337,2.76-1.942,4.112
	c-0.605,1.351-1.252,2.724-1.942,4.112c-1.132-0.352-2.216-0.741-3.249-1.165c-1.033-0.422-2.102-0.843-3.206-1.261
	c-1.104-0.416-2.179-0.859-3.227-1.327c-1.047-0.469-2.151-0.923-3.312-1.367c-1.103-0.416-2.194-0.825-3.27-1.231
	c-1.076-0.404-2.18-0.782-3.313-1.135c-0.85-0.224-1.721-0.48-2.613-0.764c-0.892-0.283-1.763-0.536-2.613-0.764
	c-0.141,0.015-0.298-0.017-0.467-0.094s-0.325-0.106-0.467-0.093c-0.424-0.112-0.844-0.164-1.255-0.156
	c-0.411,0.01-0.801,0.048-1.171,0.113c-0.142,0.015-0.284,0.03-0.426,0.042c-0.141,0.014-0.284,0.028-0.426,0.041
	c-1.647,0.189-3.071,1.021-4.273,2.49l0.128-0.058c-0.515,0.696-0.902,1.411-1.163,2.144c-0.259,0.578-0.347,1.08-0.265,1.503
	c-0.058,0.437-0.076,0.776-0.049,1.02c0.026,0.399,0.088,0.754,0.185,1.068c0.098,0.315,0.23,0.664,0.397,1.047
	c0.365,0.705,0.829,1.337,1.393,1.898c0.169,0.23,0.338,0.383,0.508,0.459c0.79,0.817,1.666,1.441,2.628,1.87
	c0.566,0.255,1.103,0.495,1.613,0.722c0.509,0.229,1.033,0.502,1.57,0.818c1.047,0.547,2.101,1.038,3.162,1.474
	c1.062,0.437,2.116,0.929,3.163,1.472c2.152,0.963,4.28,1.935,6.389,2.917c2.108,0.983,4.238,1.955,6.389,2.917
	c2.434,1.09,4.882,2.069,7.346,2.94c0.963,0.431,1.912,0.586,2.849,0.464c1.05,0.085,2.016-0.101,2.899-0.556
	c0.314-0.246,0.605-0.443,0.876-0.593c0.27-0.149,0.548-0.314,0.833-0.496c1.17-0.942,2.057-2.092,2.661-3.443
	c1.581-3.232,3.098-6.434,4.553-9.605c1.453-3.174,2.943-6.388,4.468-9.644c0.201-0.449,0.409-0.877,0.626-1.284
	c0.215-0.405,0.438-0.864,0.669-1.38l0.303-0.675c0.114-0.256,0.244-0.624,0.39-1.1c0.144-0.475,0.245-0.855,0.305-1.138
	c0.001-0.308,0.026-0.701,0.072-1.185c0.046-0.48,0.056-0.844,0.028-1.087c0.002-0.154-0.005-0.252-0.019-0.299
	c-0.014-0.043-0.02-0.143-0.02-0.298c-0.055-0.178-0.09-0.368-0.103-0.567c-0.013-0.198-0.047-0.386-0.103-0.567
	c0.002-0.308-0.052-0.603-0.165-0.886c-0.111-0.28-0.237-0.57-0.378-0.864c-0.055-0.178-0.196-0.474-0.42-0.883
	c-0.674-1.073-1.556-1.834-2.646-2.284c-1.089-0.448-2.217-0.587-3.382-0.413C109.343,326.859,109.172,326.899,109.059,326.924z
	 M119.981,274.271c-4.312-0.138-8.574,0.058-12.787,0.588c-1.365,0.144-2.724,0.309-4.077,0.496
	c-1.352,0.188-2.714,0.508-4.087,0.958c-1.226,0.287-2.391,0.658-3.494,1.117c-1.102,0.461-2.187,1.102-3.254,1.927
	c-1.213,0.993-2.266,2.194-3.161,3.603c-0.895,1.412-1.444,2.926-1.648,4.54c-0.065,0.437-0.111,0.902-0.135,1.395
	c-0.025,0.495-0.012,0.985,0.034,1.473c0.133,0.451,0.223,0.92,0.269,1.407c0.047,0.488,0.137,0.958,0.269,1.408
	c0.05,0.335,0.129,0.643,0.237,0.926c0.108,0.284,0.23,0.574,0.365,0.87c1.257,3.773,2.954,7.184,5.09,10.236
	c2.137,3.053,4.515,5.811,7.132,8.268c0.999,1.087,2.171,2.137,3.511,3.148c1.342,1.014,2.586,1.979,3.73,2.899
	c0.754,0.583,1.518,1.113,2.288,1.587c0.771,0.476,1.592,0.955,2.462,1.436c0.282,0.132,0.575,0.308,0.883,0.528
	c0.308,0.219,0.618,0.363,0.928,0.431c0.311,0.068,0.657,0.17,1.037,0.308c0.381,0.138,0.726,0.24,1.037,0.306
	c0.957,0.444,1.991,0.499,3.105,0.16c0.173-0.074,0.343-0.074,0.511,0.005c0.569-0.046,1.135-0.347,1.701-0.9
	c0.565-0.555,1.068-1.196,1.509-1.923c0.44-0.728,0.76-1.492,0.963-2.293c0.2-0.8,0.236-1.424,0.103-1.876
	c0.068-0.589-0.004-1.169-0.22-1.734c-0.214-0.567-0.46-1.069-0.735-1.508c-0.219-0.412-0.368-0.677-0.452-0.793
	c-0.219-0.411-0.398-0.689-0.536-0.832c-0.271-0.593-0.756-1.167-1.455-1.726c-0.413-0.579-0.815-1.116-1.202-1.607
	c-0.388-0.49-0.803-0.994-1.246-1.512c0.165,0.234,0.317,0.421,0.456,0.562c-0.165-0.231-0.331-0.426-0.499-0.582
	c-0.167-0.154-0.376-0.33-0.628-0.525c0.541-1.457,0.982-2.808,1.319-4.051c0.338-1.242,0.654-2.474,0.949-3.698
	c0.295-1.223,0.597-2.423,0.904-3.603c0.309-1.177,0.69-2.478,1.145-3.899c1.388,0.103,2.755,0.289,4.098,0.563
	c1.343,0.274,2.72,0.584,4.133,0.929c0.989,0.226,1.999,0.113,3.03-0.341c1.14-0.247,2.144-0.713,3.01-1.4
	c0.922-0.66,1.679-1.552,2.27-2.677c0.763-1.2,1.21-2.313,1.346-3.339c0.223-1.217,0.27-2.382,0.136-3.493
	c-0.133-1.111-0.503-2.118-1.109-3.022c-0.417-0.427-0.86-0.942-1.33-1.551c-1.172-1.011-2.465-1.611-3.88-1.803
	C128.967,274.872,124.293,274.409,119.981,274.271z M104.807,291.474c0.426-0.035,0.853-0.07,1.279-0.105
	c0.853-0.07,1.714-0.155,2.581-0.258c0.868-0.101,1.714-0.156,2.537-0.162c-0.86,3.176-1.746,6.185-2.656,9.027
	c-0.966-1.304-1.869-2.636-2.706-3.998c-0.838-1.361-1.624-2.796-2.36-4.303C103.939,291.577,104.38,291.509,104.807,291.474z
	 M127.365,222.009l-1.881-0.615c-0.593-0.069-1.196-0.082-1.81-0.043c-0.613,0.04-1.243,0.211-1.888,0.512
	c-0.231,0.041-0.544,0.177-0.942,0.406c-0.398,0.231-0.701,0.411-0.908,0.542c-0.688,0.519-1.275,1.048-1.764,1.588
	c-0.336,0.382-0.61,0.776-0.821,1.183c-0.211,0.408-0.429,0.83-0.656,1.268l-0.777,1.503l-1.554,3.006l-3.157,6.106
	c-0.518,1.003-1.028,1.989-1.53,2.958c-0.502,0.972-0.999,2.004-1.495,3.096c-0.463,1.031-0.917,2.046-1.365,3.045
	c-0.447,1-0.901,2.015-1.364,3.044c-0.366,0.843-0.723,1.671-1.073,2.481c-0.349,0.812-0.653,1.667-0.908,2.566
	c-0.074,0.279-0.148,0.559-0.223,0.837c-0.074,0.28-0.148,0.56-0.223,0.837c-0.245,0.747-0.338,1.432-0.279,2.058
	c0.061,0.627,0.197,1.274,0.411,1.939c0.337,0.969,0.87,1.76,1.6,2.375c0.354,0.261,0.767,0.475,1.239,0.641
	c0.473,0.166,0.955,0.177,1.448,0.034c0.548-0.113,1.089-0.25,1.626-0.41c0.536-0.158,1.071-0.418,1.606-0.777
	c0.359-0.29,0.699-0.61,1.02-0.961c0.321-0.349,0.65-0.715,0.986-1.097c0.273-0.255,0.626-0.668,1.059-1.238
	c0.37-0.443,0.711-0.901,1.025-1.375c0.314-0.472,0.629-0.944,0.942-1.418c0.282-0.408,0.55-0.826,0.804-1.251
	c0.255-0.423,0.523-0.84,0.804-1.251l0.082,0.043c0.463,0.319,0.951,0.592,1.463,0.816c0.512,0.226,0.999,0.498,1.463,0.816
	l3.058,1.58c2.006,1.118,3.992,2.203,5.959,3.259c1.966,1.058,3.986,2.081,6.056,3.072l3.14,1.623
	c0.827,0.427,1.66,0.84,2.503,1.234c0.842,0.397,1.757,0.652,2.746,0.765l2.172,0.052c0.57-0.022,1.109-0.121,1.618-0.295
	c0.508-0.172,1.014-0.407,1.516-0.704c0.819-0.369,1.445-0.84,1.88-1.409c0.534-0.359,0.98-0.782,1.338-1.273
	c0.357-0.488,0.682-1.016,0.974-1.579l0.918-2.383l0.276-2.357c-0.02-1.041-0.248-2.152-0.686-3.331
	c-0.223-0.512-0.477-1-0.761-1.465c-0.284-0.463-0.613-0.871-0.99-1.225c-1.049-0.939-2.042-1.651-2.979-2.136
	c-0.22-0.113-0.448-0.211-0.685-0.295c-0.236-0.081-0.492-0.194-0.768-0.338c-0.44-0.228-0.894-0.463-1.363-0.705
	c-0.467-0.241-0.939-0.444-1.412-0.611c-0.992-0.512-1.992-1.009-2.999-1.491c-1.008-0.48-2.024-0.946-3.047-1.397
	c-2.048-0.899-4.082-1.792-6.102-2.679c-2.02-0.884-4.055-1.778-6.102-2.678c0.314-0.472,0.617-0.991,0.908-1.554
	c0.291-0.564,0.594-1.08,0.908-1.554c0.162-0.312,0.322-0.587,0.479-0.824c0.157-0.235,0.316-0.51,0.479-0.824
	c0.064-0.124,0.151-0.258,0.26-0.401c0.109-0.141,0.194-0.275,0.26-0.402c0.043-0.216,0.103-0.402,0.185-0.559
	c0.081-0.156,0.143-0.343,0.185-0.559c0.097-0.188,0.181-0.383,0.25-0.585c0.07-0.202,0.153-0.397,0.25-0.585
	c0.052-0.37,0.097-0.725,0.131-1.063c0.036-0.338,0.079-0.692,0.131-1.063c-0.039-0.734-0.138-1.42-0.297-2.058
	c-0.162-1.036-0.592-1.893-1.289-2.571C128.932,223.098,128.247,222.465,127.365,222.009z M156.076,175.059l-1.821-0.776
	c-0.585-0.119-1.185-0.185-1.8-0.199c-0.614-0.013-1.257,0.103-1.925,0.347c-0.233,0.021-0.557,0.129-0.974,0.322
	c-0.416,0.196-0.733,0.349-0.952,0.461c-0.729,0.458-1.361,0.934-1.894,1.43c-0.368,0.351-0.676,0.72-0.92,1.107
	c-0.245,0.388-0.5,0.79-0.763,1.206l-0.904,1.43l-1.808,2.86l-3.673,5.81c-0.603,0.954-1.196,1.892-1.78,2.815
	c-0.585,0.924-1.17,1.91-1.758,2.955c-0.55,0.987-1.091,1.959-1.623,2.915c-0.531,0.958-1.072,1.929-1.623,2.915
	c-0.437,0.808-0.865,1.602-1.284,2.378c-0.419,0.779-0.795,1.605-1.127,2.478c-0.098,0.272-0.196,0.544-0.295,0.814
	c-0.098,0.272-0.196,0.544-0.295,0.814c-0.309,0.723-0.461,1.397-0.456,2.026c0.006,0.63,0.086,1.286,0.242,1.967
	c0.252,0.994,0.715,1.829,1.388,2.505c0.33,0.29,0.723,0.539,1.179,0.745c0.458,0.207,0.937,0.26,1.44,0.159
	c0.555-0.065,1.107-0.154,1.655-0.267c0.548-0.111,1.103-0.323,1.667-0.635c0.383-0.258,0.749-0.546,1.099-0.868
	c0.351-0.32,0.709-0.656,1.078-1.008c0.293-0.231,0.68-0.611,1.162-1.142c0.407-0.41,0.787-0.836,1.14-1.281
	c0.354-0.443,0.707-0.886,1.061-1.33c0.316-0.383,0.619-0.776,0.909-1.177c0.29-0.399,0.594-0.792,0.909-1.177l0.079,0.049
	c0.434,0.359,0.896,0.672,1.387,0.94c0.49,0.269,0.952,0.582,1.387,0.939l2.909,1.839c1.902,1.287,3.786,2.541,5.655,3.763
	c1.867,1.223,3.791,2.418,5.768,3.584l2.987,1.889c0.786,0.497,1.581,0.98,2.387,1.446c0.805,0.468,1.694,0.801,2.669,1l2.16,0.239
	c0.57,0.028,1.115-0.024,1.637-0.153c0.521-0.128,1.046-0.319,1.572-0.571c0.848-0.296,1.512-0.711,1.995-1.241
	c0.563-0.311,1.044-0.694,1.444-1.151c0.398-0.456,0.768-0.953,1.107-1.49l1.121-2.294l0.479-2.324
	c0.07-1.038-0.062-2.166-0.395-3.378c-0.178-0.528-0.389-1.038-0.632-1.525c-0.243-0.486-0.535-0.921-0.88-1.307
	c-0.964-1.026-1.892-1.821-2.784-2.385c-0.209-0.132-0.429-0.25-0.657-0.353c-0.228-0.101-0.473-0.236-0.736-0.403
	c-0.419-0.264-0.851-0.538-1.297-0.82c-0.445-0.281-0.896-0.524-1.354-0.731c-0.944-0.597-1.896-1.178-2.858-1.745
	c-0.963-0.566-1.935-1.118-2.915-1.655c-1.963-1.073-3.911-2.139-5.848-3.197c-1.936-1.056-3.885-2.123-5.847-3.197
	c0.354-0.443,0.7-0.934,1.039-1.47c0.339-0.536,0.686-1.025,1.039-1.469c0.188-0.298,0.371-0.557,0.548-0.78
	c0.177-0.22,0.359-0.48,0.547-0.779c0.075-0.119,0.173-0.244,0.294-0.378c0.121-0.131,0.218-0.257,0.293-0.377
	c0.062-0.212,0.138-0.392,0.232-0.541c0.093-0.148,0.172-0.329,0.232-0.541c0.113-0.179,0.214-0.365,0.3-0.562
	c0.087-0.195,0.187-0.382,0.3-0.561c0.084-0.364,0.158-0.713,0.222-1.048c0.065-0.334,0.139-0.682,0.223-1.047
	c0.025-0.736-0.015-1.427-0.118-2.076c-0.071-1.046-0.426-1.937-1.062-2.673C157.542,176.279,156.915,175.589,156.076,175.059z
	 M194.723,162.924c0.547-0.645,1.119-1.27,1.713-1.875c0.455-0.63,0.897-1.202,1.332-1.713c0.433-0.511,0.807-1.095,1.121-1.753
	c0.404-0.857,0.737-1.731,1.001-2.617c0.264-0.886,0.318-1.763,0.163-2.636c-0.014-0.75-0.167-1.504-0.459-2.262
	c-0.293-0.756-0.769-1.322-1.428-1.697c-0.282-0.146-0.517-0.276-0.705-0.391c-0.188-0.112-0.376-0.25-0.566-0.411
	c-1.03-0.319-2.056-0.403-3.078-0.254c-0.372,0.055-0.766,0.161-1.182,0.314c-0.416,0.156-0.856,0.314-1.319,0.476
	c-0.371,0.149-0.75,0.381-1.14,0.696c-0.391,0.317-0.768,0.596-1.137,0.838c-0.645,0.472-1.17,0.972-1.58,1.503
	c-0.41,0.532-0.865,1.092-1.367,1.683c-0.499,0.685-0.999,1.371-1.5,2.056c-0.499,0.685-1.023,1.35-1.571,1.995
	c-0.226,0.363-0.464,0.715-0.715,1.057c-0.249,0.343-0.512,0.675-0.785,0.998c-0.361,0.619-0.712,1.223-1.051,1.813
	c-0.339,0.592-0.666,1.169-0.982,1.732l-0.17,0.272l-0.17,0.272c-0.895-0.574-1.766-1.153-2.615-1.734
	c-0.848-0.582-1.72-1.159-2.615-1.734c0.46-0.349,0.78-0.632,0.963-0.848c1.149-0.873,2.158-1.774,3.025-2.703
	c0.643-0.564,1.19-1.209,1.642-1.935c0.595-0.605,1.166-1.23,1.713-1.875c0.547-0.645,1.095-1.29,1.642-1.935
	c0.549-0.55,1.028-1.091,1.438-1.623c0.41-0.53,0.771-1.124,1.086-1.782c0.356-0.899,0.667-1.768,0.932-2.607
	c0.264-0.838,0.366-1.701,0.303-2.586c-0.108-0.83-0.308-1.6-0.6-2.312c-0.292-0.709-0.745-1.278-1.357-1.707
	c-0.282-0.146-0.517-0.276-0.705-0.391c-0.188-0.113-0.423-0.242-0.705-0.391c-0.844-0.346-1.824-0.439-2.939-0.275
	c-0.371,0.056-0.788,0.164-1.251,0.325c-0.463,0.163-0.88,0.318-1.249,0.466c-0.371,0.149-0.762,0.372-1.175,0.667
	c-0.414,0.297-0.805,0.566-1.174,0.808c-0.597,0.512-1.111,1.022-1.544,1.533c-0.434,0.511-0.876,1.083-1.332,1.713l-3.071,4.05
	c-0.226,0.363-0.477,0.705-0.75,1.028c-0.274,0.322-0.523,0.666-0.75,1.028c-0.409,0.578-0.771,1.173-1.086,1.783
	c-0.316,0.612-0.63,1.199-0.947,1.762c-0.725,1.142-1.172,2.243-1.338,3.302l0.008,0.423c-0.14-0.026-0.233-0.036-0.28-0.03
	c-0.047,0.008-0.14-0.002-0.28-0.03c-0.699-0.039-1.405,0.124-2.121,0.488c-0.715,0.364-1.324,0.841-1.826,1.433
	c-0.503,0.592-0.851,1.268-1.047,2.024c-0.196,0.759-0.172,1.473,0.073,2.142c0.049,0.135,0.097,0.269,0.146,0.402
	c0.05,0.135,0.098,0.269,0.147,0.402c0.053,0.322,0.163,0.624,0.33,0.904c0.169,0.282,0.325,0.577,0.47,0.884
	c0.145,0.309,0.301,0.557,0.467,0.743c0.166,0.189,0.322,0.436,0.467,0.743c0.242,0.483,0.54,0.898,0.896,1.246
	c0.356,0.349,0.745,0.656,1.169,0.923c0.237,0.201,0.461,0.415,0.675,0.642c0.213,0.229,0.439,0.442,0.675,0.642
	c0.947,0.803,1.88,1.595,2.802,2.377c0.922,0.782,1.81,1.629,2.665,2.538c0.947,0.803,1.869,1.586,2.766,2.347
	c0.899,0.763,1.843,1.519,2.835,2.267c0.946,0.803,1.879,1.573,2.8,2.307c0.921,0.736,1.878,1.479,2.869,2.227
	c0.475,0.496,0.971,0.94,1.491,1.334c0.519,0.395,1.039,0.813,1.559,1.254c0.284,0.241,0.557,0.472,0.816,0.693
	c0.261,0.221,0.531,0.405,0.813,0.551c0.474,0.402,0.97,0.823,1.49,1.264c0.521,0.442,1.106,0.709,1.76,0.8
	c0.328,0.094,0.621,0.18,0.878,0.26c0.258,0.08,0.55,0.167,0.878,0.26c0.512-0.028,0.989-0.063,1.431-0.104
	c0.442-0.041,0.894-0.143,1.356-0.305c0.324-0.093,0.637-0.198,0.937-0.314c0.301-0.114,0.588-0.286,0.864-0.515
	c0.876-0.457,1.68-1.116,2.41-1.977c0.36-0.618,0.7-1.209,1.016-1.773c0.315-0.565,0.562-1.188,0.735-1.873
	c0.087-0.294,0.127-0.725,0.117-1.287c0.691-0.43,1.266-0.867,1.723-1.312c0.551-0.456,1.056-0.907,1.513-1.351
	c0.458-0.443,0.962-0.893,1.512-1.351c0.321-0.282,0.607-0.594,0.857-0.937c0.25-0.343,0.512-0.675,0.785-0.998
	c0.595-0.605,1.154-1.239,1.677-1.905c0.524-0.665,1.084-1.3,1.677-1.905c0.501-0.591,0.958-1.151,1.367-1.683
	c0.41-0.53,0.796-1.104,1.157-1.723c0.356-0.899,0.678-1.782,0.966-2.648c0.288-0.865,0.354-1.733,0.198-2.605
	c-0.061-0.79-0.225-1.554-0.495-2.292c-0.27-0.736-0.757-1.311-1.463-1.727c-0.564-0.292-0.988-0.561-1.272-0.801
	c-1.03-0.319-2.056-0.403-3.078-0.255c-0.372,0.056-0.766,0.161-1.182,0.315c-0.416,0.156-0.809,0.308-1.179,0.455
	c-0.417,0.11-0.843,0.325-1.281,0.647c-0.437,0.323-0.816,0.626-1.137,0.908c-0.645,0.472-1.182,0.962-1.615,1.472
	c-0.434,0.511-0.854,1.102-1.261,1.773c-0.547,0.645-1.07,1.311-1.571,1.995c-0.5,0.686-0.999,1.371-1.5,2.056
	c-0.274,0.323-0.536,0.656-0.786,0.998c-0.249,0.343-0.487,0.696-0.714,1.058c-0.681,0.995-1.268,1.975-1.764,2.941
	c-0.234-0.106-0.434-0.23-0.6-0.371c-0.165-0.14-0.389-0.282-0.672-0.431c-0.52-0.441-1.052-0.844-1.593-1.213
	c-0.542-0.367-1.096-0.744-1.662-1.133c0.506-0.403,0.988-0.826,1.445-1.271c0.458-0.443,0.916-0.886,1.373-1.331
	c0.322-0.282,0.608-0.594,0.857-0.937c0.25-0.342,0.536-0.654,0.856-0.937C193.628,164.215,194.176,163.569,194.723,162.924z
	 M232.755,104.551c-0.761-0.98-1.536-1.949-2.324-2.91c-0.642-0.758-1.386-1.386-2.23-1.885c-0.843-0.496-1.779-0.791-2.808-0.884
	c-0.524-0.001-1.039,0.011-1.546,0.036c-0.506,0.024-1.023,0.154-1.552,0.386c-0.996,0.191-1.978,0.64-2.945,1.347
	c-0.817,0.674-1.551,1.461-2.204,2.36c-0.652,0.9-1.091,1.854-1.314,2.862c-0.166,0.968-0.183,1.96-0.051,2.976
	c0.132,1.018,0.52,1.907,1.162,2.664c2.899,3.489,5.797,7.094,8.693,10.813c-0.39-0.175-0.819-0.283-1.287-0.327
	c-2.89-0.728-5.793-1.41-8.703-2.048c-2.911-0.637-5.823-1.273-8.733-1.91c-0.859-0.217-1.688-0.397-2.492-0.541
	c-0.803-0.141-1.633-0.322-2.491-0.541c-0.244,0.025-0.521,0.035-0.829,0.03c-0.31-0.004-0.634,0.002-0.97,0.018
	c-0.301,0.067-0.569,0.148-0.805,0.243c-0.236,0.097-0.532,0.198-0.89,0.305l-1.701,0.898c-0.797,0.584-1.456,1.295-1.975,2.136
	c-0.423,0.617-0.685,1.154-0.786,1.612c-0.272,0.584-0.395,1.134-0.366,1.65c-0.101,0.46-0.083,1.023,0.055,1.688
	c0.172,0.951,0.495,1.752,0.971,2.402c1.447,1.862,2.847,3.777,4.2,5.744c1.352,1.969,2.695,3.926,4.029,5.869
	c1.391,1.903,2.773,3.791,4.145,5.669c1.373,1.877,2.783,3.747,4.23,5.606l1.757,2.403c0.293,0.401,0.646,0.795,1.061,1.183
	c0.415,0.388,0.825,0.742,1.233,1.058c0.407,0.318,0.799,0.645,1.177,0.983c0.378,0.339,0.827,0.625,1.348,0.858
	c0.671,0.201,1.266,0.419,1.787,0.652c0.651,0.293,1.337,0.367,2.062,0.221c0.723-0.145,1.397-0.446,2.024-0.904
	c0.626-0.457,1.116-1.009,1.475-1.655c0.357-0.646,0.495-1.322,0.415-2.032l-0.055-1.688c0.028-0.558-0.033-1.031-0.186-1.42
	c-0.153-0.387-0.319-0.822-0.498-1.307c-0.07-0.333-0.163-0.61-0.28-0.832c-0.118-0.22-0.212-0.496-0.281-0.832
	c-0.179-0.483-0.419-0.961-0.72-1.432c-0.301-0.471-0.57-0.927-0.806-1.37c-0.581-1.033-1.289-2.149-2.12-3.347
	c-0.832-1.196-1.539-2.312-2.12-3.347c-0.237-0.441-0.472-0.825-0.711-1.151c-0.237-0.325-0.474-0.708-0.71-1.151
	c3.187,0.896,6.271,1.83,9.251,2.799c2.981,0.971,5.851,1.792,8.612,2.46c3.099,0.655,6.204,0.842,9.318,0.562
	c1.482-0.24,2.794-0.776,3.933-1.608c1.137-0.832,2.046-1.919,2.725-3.26c0.271-0.583,0.479-1.194,0.622-1.837
	c0.141-0.64,0.209-1.265,0.201-1.875c-0.07-1.408-0.47-2.613-1.202-3.615c-2.299-3.62-4.782-7.315-7.452-11.087
	c-2.671-3.769-5.343-7.366-8.019-10.787C234.29,106.502,233.515,105.532,232.755,104.551z M326.961,83.948l-0.226-1.966
	c-0.186-0.567-0.426-1.121-0.717-1.663c-0.293-0.54-0.712-1.041-1.255-1.501c-0.133-0.193-0.388-0.421-0.761-0.687
	c-0.376-0.264-0.667-0.464-0.872-0.599c-0.759-0.407-1.485-0.72-2.18-0.939c-0.488-0.146-0.96-0.23-1.418-0.252
	c-0.459-0.021-0.934-0.043-1.426-0.065l-1.69-0.078l-3.38-0.156l-6.866-0.317c-1.127-0.052-2.236-0.103-3.328-0.153
	c-1.092-0.05-2.238-0.071-3.437-0.065c-1.13,0.01-2.242,0.022-3.336,0.032c-1.095,0.012-2.207,0.024-3.336,0.033
	c-0.919,0.02-1.82,0.041-2.703,0.062c-0.884,0.022-1.787,0.103-2.711,0.247c-0.285,0.049-0.57,0.099-0.854,0.147
	c-0.285,0.049-0.57,0.099-0.854,0.147c-0.781,0.089-1.442,0.292-1.986,0.606c-0.544,0.317-1.075,0.712-1.589,1.184
	c-0.739,0.711-1.235,1.526-1.489,2.446c-0.089,0.431-0.111,0.896-0.064,1.394c0.046,0.499,0.237,0.942,0.574,1.33
	c0.332,0.45,0.682,0.886,1.051,1.306c0.368,0.421,0.827,0.799,1.377,1.134c0.414,0.205,0.846,0.381,1.298,0.525
	c0.451,0.146,0.921,0.292,1.409,0.437c0.346,0.141,0.868,0.289,1.567,0.445c0.557,0.151,1.116,0.27,1.677,0.357
	c0.56,0.089,1.12,0.177,1.682,0.264c0.489,0.085,0.98,0.154,1.472,0.207c0.49,0.055,0.982,0.124,1.473,0.208l-0.004,0.093
	c-0.097,0.554-0.14,1.111-0.13,1.67c0.009,0.559-0.035,1.116-0.13,1.67l-0.159,3.438c-0.177,2.289-0.333,4.547-0.471,6.776
	c-0.139,2.228-0.225,4.491-0.26,6.785l-0.163,3.531c-0.042,0.929-0.069,1.859-0.076,2.79c-0.008,0.931,0.142,1.869,0.453,2.814
	l0.86,1.995c0.258,0.509,0.573,0.958,0.944,1.347c0.369,0.389,0.794,0.751,1.274,1.083c0.677,0.59,1.366,0.962,2.065,1.119
	c0.549,0.335,1.12,0.563,1.715,0.684c0.594,0.121,1.209,0.196,1.842,0.225l2.548-0.162l2.257-0.734
	c0.937-0.453,1.851-1.126,2.74-2.016c0.372-0.416,0.709-0.852,1.012-1.303c0.302-0.452,0.536-0.921,0.7-1.411
	c0.415-1.346,0.647-2.546,0.696-3.599c0.011-0.247,0.004-0.496-0.018-0.746c-0.025-0.248-0.029-0.528-0.015-0.838
	c0.023-0.495,0.047-1.006,0.071-1.533c0.025-0.526,0.012-1.038-0.035-1.538c0.052-1.115,0.085-2.231,0.101-3.347
	c0.015-1.117,0.014-2.234-0.004-3.352c-0.039-2.237-0.077-4.457-0.116-6.663c-0.041-2.205-0.079-4.427-0.116-6.663
	c0.56,0.088,1.158,0.146,1.791,0.175c0.634,0.03,1.23,0.089,1.792,0.176c0.352,0.016,0.668,0.047,0.948,0.09
	c0.279,0.045,0.595,0.074,0.948,0.09c0.14,0.007,0.298,0.03,0.474,0.069c0.173,0.04,0.331,0.062,0.473,0.068
	c0.214-0.052,0.408-0.074,0.586-0.066c0.175,0.008,0.371-0.014,0.585-0.066c0.212,0.009,0.423,0.005,0.636-0.017
	c0.213-0.021,0.424-0.027,0.636-0.017c0.357-0.108,0.698-0.215,1.02-0.326c0.323-0.108,0.662-0.217,1.02-0.325
	c0.651-0.342,1.233-0.718,1.746-1.13c0.873-0.579,1.473-1.329,1.797-2.245C326.627,85.827,326.916,84.94,326.961,83.948z
	 M385.081,108.837c0.383-1.543,0.577-2.991,0.584-4.342c0.007-1.351-0.233-2.567-0.72-3.647c-0.487-1.08-1.332-1.924-2.535-2.532
	c-1.768-0.753-3.444-0.699-5.033,0.166c-1.591,0.864-3.042,2.042-4.351,3.533c-1.31,1.493-2.453,3.085-3.43,4.781
	c-0.977,1.695-1.721,2.97-2.23,3.823l-0.209,0.415c-0.939-0.334-1.823-0.694-2.653-1.08c-0.833-0.386-1.717-0.746-2.653-1.081
	c-0.909-0.39-1.802-0.771-2.679-1.146c-0.877-0.373-1.785-0.728-2.721-1.063c-0.657-0.263-1.315-0.525-1.971-0.788
	c-0.658-0.263-1.33-0.498-2.014-0.705c0.488-1.281,1.059-2.644,1.71-4.086c0.651-1.444,1.206-2.935,1.669-4.472
	c0.46-1.539,0.754-3.058,0.881-4.557c0.125-1.5-0.073-2.903-0.597-4.21c-0.071-0.175-0.145-0.298-0.225-0.375
	c-0.081-0.075-0.156-0.2-0.225-0.375c-0.574-1.054-1.337-1.926-2.292-2.617c-0.953-0.691-2.061-1.042-3.319-1.052l-0.183,0.012
	l-0.183,0.011c-0.554-0.001-1.011,0.046-1.374,0.14c-0.364,0.094-0.787,0.228-1.268,0.401c-0.994,0.401-1.704,0.946-2.129,1.633
	c-1.512,1.738-2.733,3.569-3.666,5.495c-0.935,1.925-1.891,3.857-2.87,5.793c-0.531,1.052-1.055,2.089-1.573,3.113
	c-0.518,1.025-1.011,2.078-1.479,3.161c-0.47,1.083-0.969,2.152-1.501,3.202c-0.531,1.052-1.064,2.104-1.594,3.154
	c-0.246,0.641-0.514,1.252-0.808,1.833c-0.294,0.581-0.594,1.176-0.902,1.784c-0.14,0.278-0.304,0.56-0.488,0.848
	c-0.187,0.288-0.362,0.598-0.53,0.931l-0.419,0.83c-0.224,0.443-0.41,0.887-0.556,1.334c-0.148,0.447-0.271,0.924-0.367,1.43
	c-0.015,0.341-0.022,0.666-0.022,0.979c0,0.312-0.007,0.639-0.021,0.98c0.111,1.03,0.433,1.957,0.964,2.78
	c0.245,0.609,0.67,1.172,1.279,1.689c0.621,0.8,1.466,1.471,2.538,2.012l2.107,0.753c0.37,0.047,0.726,0.089,1.064,0.121
	c0.34,0.032,0.694,0.072,1.064,0.121c0.985,0.081,1.989-0.106,3.01-0.563c0.846-0.266,1.663-0.792,2.454-1.573
	c0.285-0.411,0.558-0.794,0.818-1.15c0.258-0.355,0.486-0.726,0.683-1.115l0.419-0.83l0.839-1.661
	c0.279-0.552,0.545-1.079,0.797-1.577c0.252-0.498,0.485-1.04,0.704-1.625l0.755-1.494c0.376,0.191,0.769,0.389,1.18,0.596
	c0.408,0.207,0.787,0.434,1.137,0.68c0.852,0.501,1.749,0.954,2.69,1.359c0.939,0.406,1.849,0.831,2.731,1.277
	c0.881,0.445,1.762,0.89,2.642,1.335c0.881,0.445,1.747,0.919,2.601,1.419l-0.209,0.415l-1.888,3.735l-0.966,1.909
	c-0.246,0.641-0.514,1.252-0.808,1.833c-0.293,0.581-0.499,1.224-0.619,1.928c-0.014,0.342-0.018,0.668-0.018,0.981
	c0.001,0.313-0.006,0.64-0.02,0.98c0.107,0.888,0.433,1.818,0.978,2.788c0.247,0.61,0.678,1.176,1.289,1.694
	c0.627,0.803,1.48,1.478,2.556,2.022l2.122,0.76c0.371,0.048,0.728,0.09,1.07,0.124c0.341,0.032,0.697,0.074,1.07,0.124
	c0.955-0.004,1.93-0.205,2.928-0.604c0.849-0.265,1.671-0.788,2.464-1.569c0.664-0.845,1.249-1.73,1.757-2.656
	c0.507-0.924,0.998-1.857,1.474-2.799c0.845-2.143,1.628-4.006,2.347-5.588c0.72-1.581,1.436-3.114,2.145-4.596
	c0.709-1.482,1.475-3.075,2.297-4.78c0.821-1.704,1.814-3.789,2.984-6.256C384.193,111.931,384.697,110.38,385.081,108.837z
	 M402.32,151.433c0.61,0.586,1.198,1.194,1.767,1.824c0.602,0.493,1.144,0.97,1.629,1.434c0.482,0.463,1.043,0.872,1.68,1.226
	c0.832,0.456,1.684,0.842,2.551,1.159c0.868,0.317,1.741,0.425,2.621,0.324c0.749,0.033,1.511-0.074,2.286-0.32
	c0.771-0.246,1.367-0.686,1.78-1.321c0.164-0.272,0.308-0.499,0.433-0.68c0.124-0.181,0.273-0.361,0.445-0.54
	c0.381-1.008,0.528-2.027,0.442-3.057c-0.032-0.374-0.113-0.774-0.241-1.199c-0.13-0.425-0.261-0.873-0.394-1.345
	c-0.127-0.379-0.336-0.773-0.626-1.181c-0.292-0.409-0.547-0.804-0.766-1.186c-0.432-0.672-0.899-1.228-1.402-1.669
	c-0.507-0.441-1.037-0.931-1.597-1.468c-0.653-0.541-1.308-1.081-1.96-1.623c-0.653-0.541-1.285-1.104-1.896-1.69
	c-0.348-0.248-0.685-0.507-1.012-0.778c-0.327-0.269-0.642-0.552-0.947-0.845c-0.595-0.398-1.177-0.785-1.746-1.159
	c-0.57-0.374-1.126-0.736-1.668-1.086l-0.262-0.186l-0.261-0.186c0.627-0.859,1.258-1.693,1.891-2.504
	c0.632-0.812,1.261-1.646,1.891-2.505c0.32,0.48,0.583,0.817,0.787,1.013c0.801,1.2,1.639,2.262,2.512,3.185
	c0.524,0.676,1.134,1.262,1.83,1.757c0.567,0.631,1.156,1.239,1.766,1.825c0.611,0.586,1.222,1.171,1.832,1.757
	c0.515,0.581,1.026,1.093,1.532,1.535c0.504,0.441,1.075,0.838,1.714,1.193c0.875,0.411,1.723,0.774,2.545,1.089
	c0.819,0.316,1.674,0.469,2.562,0.461c0.835-0.057,1.616-0.21,2.345-0.458c0.726-0.248,1.321-0.666,1.786-1.25
	c0.162-0.272,0.308-0.499,0.433-0.68c0.123-0.181,0.268-0.408,0.433-0.68c0.397-0.822,0.549-1.794,0.454-2.916
	c-0.033-0.374-0.114-0.797-0.247-1.27c-0.134-0.471-0.263-0.897-0.389-1.275c-0.127-0.379-0.325-0.783-0.593-1.214
	c-0.272-0.431-0.515-0.837-0.734-1.22c-0.475-0.627-0.952-1.172-1.436-1.635c-0.483-0.464-1.027-0.941-1.627-1.434l-3.855-3.313
	c-0.349-0.248-0.675-0.519-0.98-0.812c-0.305-0.293-0.632-0.563-0.979-0.811c-0.552-0.443-1.124-0.841-1.714-1.193
	c-0.592-0.352-1.158-0.702-1.701-1.052c-1.096-0.794-2.168-1.307-3.214-1.538l-0.422-0.018c0.034-0.138,0.049-0.231,0.047-0.278
	c-0.005-0.047,0.01-0.139,0.047-0.277c0.081-0.696-0.038-1.411-0.357-2.148c-0.32-0.736-0.76-1.373-1.319-1.91
	c-0.56-0.538-1.213-0.926-1.956-1.169c-0.745-0.242-1.46-0.261-2.143-0.058c-0.138,0.041-0.274,0.081-0.411,0.122
	c-0.138,0.041-0.274,0.081-0.41,0.122c-0.325,0.033-0.632,0.124-0.923,0.274c-0.292,0.151-0.595,0.289-0.912,0.415
	c-0.317,0.126-0.574,0.266-0.77,0.421c-0.199,0.154-0.455,0.295-0.771,0.421c-0.496,0.212-0.929,0.484-1.297,0.817
	c-0.371,0.334-0.701,0.704-0.993,1.111c-0.215,0.224-0.443,0.435-0.683,0.634c-0.241,0.199-0.467,0.411-0.682,0.635
	c-0.86,0.896-1.707,1.778-2.545,2.65c-0.836,0.873-1.737,1.707-2.696,2.505c-0.86,0.896-1.696,1.768-2.512,2.617
	c-0.816,0.85-1.629,1.747-2.436,2.69c-0.86,0.896-1.685,1.779-2.474,2.654c-0.791,0.874-1.591,1.783-2.398,2.727
	c-0.524,0.444-0.999,0.912-1.423,1.407c-0.426,0.493-0.875,0.987-1.346,1.479c-0.258,0.268-0.506,0.527-0.742,0.772
	c-0.236,0.246-0.437,0.505-0.599,0.777c-0.431,0.448-0.881,0.918-1.353,1.409c-0.472,0.493-0.775,1.061-0.907,1.709
	c-0.114,0.322-0.218,0.608-0.312,0.86c-0.096,0.253-0.201,0.539-0.312,0.86c-0.004,0.512,0.001,0.991,0.016,1.434
	c0.014,0.444,0.087,0.902,0.221,1.373c0.074,0.328,0.159,0.648,0.256,0.955c0.095,0.307,0.25,0.604,0.461,0.894
	c0.402,0.902,1.011,1.744,1.826,2.526c0.594,0.397,1.164,0.773,1.707,1.123c0.544,0.349,1.151,0.634,1.824,0.848
	c0.288,0.106,0.715,0.171,1.278,0.196c0.386,0.716,0.789,1.317,1.203,1.8c0.422,0.578,0.841,1.109,1.256,1.592
	c0.415,0.484,0.834,1.015,1.257,1.592c0.262,0.338,0.556,0.643,0.883,0.912c0.326,0.271,0.642,0.552,0.947,0.845
	c0.567,0.631,1.166,1.228,1.798,1.791c0.632,0.564,1.231,1.161,1.8,1.791c0.558,0.536,1.09,1.026,1.595,1.468
	c0.504,0.441,1.053,0.862,1.648,1.26c0.875,0.411,1.737,0.787,2.585,1.126c0.845,0.34,1.707,0.459,2.588,0.357
	c0.792-0.013,1.565-0.13,2.318-0.354c0.752-0.225,1.356-0.675,1.813-1.354c0.326-0.545,0.62-0.952,0.878-1.22
	c0.381-1.008,0.528-2.027,0.442-3.057c-0.033-0.373-0.113-0.774-0.241-1.199c-0.13-0.425-0.258-0.827-0.383-1.205
	c-0.085-0.423-0.273-0.862-0.567-1.318c-0.296-0.455-0.576-0.852-0.837-1.19c-0.432-0.672-0.888-1.239-1.372-1.703
	c-0.483-0.464-1.048-0.92-1.693-1.367c-0.61-0.586-1.242-1.149-1.894-1.69c-0.654-0.541-1.308-1.081-1.961-1.623
	c-0.305-0.293-0.621-0.574-0.947-0.845c-0.327-0.27-0.664-0.53-1.012-0.778c-0.952-0.741-1.893-1.386-2.827-1.941
	c0.119-0.228,0.256-0.419,0.406-0.577c0.15-0.156,0.306-0.371,0.471-0.643c0.472-0.491,0.908-0.998,1.309-1.516
	c0.4-0.519,0.809-1.048,1.233-1.589c0.37,0.53,0.764,1.036,1.18,1.52c0.415,0.484,0.829,0.969,1.245,1.452
	c0.261,0.338,0.555,0.642,0.883,0.912c0.326,0.271,0.62,0.575,0.883,0.912C401.1,150.262,401.71,150.848,402.32,151.433z
	 M467.354,211.77c0.996-0.4,1.894-0.842,2.692-1.322c0.797-0.48,1.396-0.895,1.8-1.242c0.401-0.348,0.37-0.369-0.097-0.063
	c0.856-0.731,1.532-1.509,2.026-2.339c0.495-0.83,0.813-1.756,0.961-2.778c0.55-2.215,0.625-4.477,0.225-6.785
	c-0.401-2.309-1.258-4.465-2.571-6.469c-0.348-0.531-0.722-1.044-1.122-1.541c-0.4-0.496-0.825-0.976-1.276-1.439
	c-0.647-0.758-1.353-1.412-2.12-1.962c-0.769-0.55-1.54-1.077-2.315-1.581c-0.298-0.227-0.578-0.4-0.843-0.522
	c-0.266-0.122-0.552-0.25-0.862-0.383c-0.57-0.302-1.122-0.55-1.657-0.747c-0.538-0.197-1.123-0.383-1.755-0.557
	c-0.31-0.134-0.614-0.229-0.912-0.288c-0.298-0.057-0.629-0.137-0.989-0.237c-0.609-0.023-1.201-0.077-1.775-0.164
	c-0.577-0.087-1.169-0.141-1.776-0.164c-0.931-0.065-1.886-0.05-2.863,0.043c-0.979,0.092-1.926,0.229-2.845,0.41
	c-1.645,0.319-3.228,0.788-4.75,1.406c-1.524,0.619-3.016,1.281-4.481,1.987c-1.011,0.493-2.016,1.025-3.013,1.595
	c-0.999,0.571-1.952,1.238-2.86,2c-0.65,0.594-1.294,1.164-1.936,1.711c-0.642,0.547-1.244,1.131-1.801,1.749
	c-0.522,0.677-1.017,1.362-1.492,2.051c-0.475,0.691-0.907,1.417-1.298,2.178c-0.079,0.22-0.16,0.463-0.245,0.729
	c-0.086,0.266-0.193,0.526-0.322,0.781c-0.171,0.532-0.331,1.08-0.481,1.642c-0.151,0.562-0.266,1.122-0.344,1.68
	c-0.132,0.592-0.205,1.188-0.219,1.787c-0.016,0.599-0.018,1.191-0.006,1.774c0.037,0.734,0.105,1.405,0.207,2.013
	c0.103,0.607,0.224,1.245,0.363,1.912c0.141,0.666,0.333,1.299,0.577,1.898c0.475,1.289,1.073,2.541,1.794,3.755
	c0.476,0.952,1.032,1.83,1.671,2.635c0.637,0.803,1.299,1.614,1.982,2.431c0.929,1.077,1.967,2.04,3.116,2.889
	c0.801,0.654,1.595,1.272,2.382,1.853c0.786,0.579,1.62,1.088,2.5,1.523c1.395,0.771,3.01,1.483,4.846,2.134
	c1.834,0.651,3.658,1.059,5.47,1.22c1.81,0.161,3.474-0.044,4.991-0.615c1.516-0.573,2.651-1.696,3.408-3.371
	c0.637-1.514,0.616-3.102-0.063-4.763c-0.683-1.661-1.706-3.139-3.073-4.434c-1.033-1.01-2.111-1.695-3.235-2.053
	c-1.124-0.359-2.224-0.735-3.296-1.127c-1.074-0.393-2.341-0.912-3.8-1.556c-1.461-0.645-2.626-1.461-3.496-2.45
	c-0.871-0.99-1.21-2.158-1.017-3.505c0.191-1.348,1.428-2.939,3.713-4.772c1.27-1.002,2.603-1.768,3.996-2.302
	c1.393-0.533,2.704-0.993,3.935-1.377c2.149-0.566,3.794-0.716,4.932-0.45c0.931,0.063,1.917,0.493,2.956,1.287
	c1.038,0.794,1.732,1.625,2.079,2.494c0.23,0.691,0.376,1.312,0.44,1.861c0.113,0.852-0.066,1.454-0.539,1.807
	c-0.475,0.352-0.919,0.665-1.333,0.936c-0.17,0.194-0.311,0.373-0.428,0.534c-0.118,0.16-0.242,0.368-0.37,0.622
	c-0.367,0.913-0.442,1.762-0.223,2.547c0.23,1.029,0.76,1.924,1.593,2.685c0.833,0.761,1.765,1.139,2.802,1.135
	C465.539,212.284,466.356,212.172,467.354,211.77z M497.822,267.58c0.817-0.571,1.593-1.22,2.326-1.945
	c0.529-0.453,1.033-0.952,1.513-1.496c0.477-0.546,0.947-1.107,1.41-1.682c0.611-0.819,1.191-1.663,1.741-2.528
	c0.549-0.866,1.068-1.755,1.557-2.668c0.678-1.338,1.122-2.59,1.332-3.751c0.047-0.429,0.093-0.796,0.138-1.101
	c0.043-0.307,0.079-0.629,0.106-0.964c-0.021-1.196-0.287-2.257-0.797-3.183c-0.21-0.77-0.568-1.418-1.07-1.945
	c-0.51-0.926-1.265-1.718-2.263-2.375c-0.599-0.316-1.215-0.598-1.85-0.853c-0.635-0.253-1.282-0.401-1.941-0.44
	c-1.067-0.137-2.006,0.018-2.822,0.467c-0.898,0.172-1.749,0.68-2.556,1.528c-0.333,0.425-0.661,0.825-0.983,1.205
	c-0.322,0.378-0.589,0.827-0.798,1.345c-0.096,0.213-0.204,0.433-0.326,0.662c-0.123,0.228-0.231,0.448-0.326,0.662
	c-0.204,0.273-0.358,0.539-0.463,0.798c-0.107,0.258-0.261,0.524-0.464,0.798c-0.463,0.576-0.973,1.158-1.532,1.749
	c-0.561,0.59-1.133,1.125-1.716,1.608c-1.29,0.871-2.621,1.604-3.993,2.198c-0.667,0.205-1.299,0.372-1.899,0.503
	c-0.603,0.13-1.242,0.22-1.92,0.273c-1-0.014-2.076-0.106-3.23-0.274c-0.408-0.098-0.79-0.211-1.142-0.338
	c-0.354-0.127-0.752-0.271-1.192-0.43c-0.28-0.249-0.546-0.444-0.801-0.586c-0.256-0.142-0.522-0.336-0.8-0.586
	c-0.28-0.249-0.514-0.482-0.704-0.699c-0.191-0.218-0.399-0.466-0.622-0.744c-0.415-0.496-0.705-1.021-0.866-1.575
	c-0.233-0.678-0.389-1.155-0.47-1.432c0.012-0.49-0.005-0.842-0.052-1.058c0.122-0.55,0.24-0.977,0.356-1.282
	c0.156-0.49,0.475-1.067,0.957-1.734c0.664-0.849,1.407-1.62,2.23-2.315c1.017-0.722,2.043-1.366,3.075-1.934
	c1.031-0.568,2.107-1.121,3.229-1.657c2.24-1.073,4.433-2.04,6.58-2.899c0.305-0.089,0.615-0.199,0.932-0.332
	c0.315-0.133,0.609-0.274,0.881-0.424l0.897-0.493l0.733-0.404c0.705-0.388,1.357-0.91,1.955-1.559
	c0.598-0.651,0.971-1.421,1.119-2.307c0.264-0.549,0.433-1.143,0.503-1.786c0.071-0.643-0.01-1.303-0.24-1.98
	c-0.443-1.447-1.27-2.561-2.479-3.344c-0.068-0.125-0.124-0.194-0.167-0.209l-0.118-0.117c-0.592-0.56-1.33-0.999-2.212-1.317
	c-0.231-0.035-0.492-0.091-0.784-0.172c-0.294-0.081-0.555-0.138-0.785-0.172l-0.148,0.021l-0.148,0.021
	c-1-0.014-2.008,0.018-3.026,0.097c-1.108,0.046-2.174,0.231-3.2,0.554c-0.808,0.204-1.603,0.4-2.384,0.588
	c-0.781,0.189-1.56,0.416-2.332,0.681c-1.8,0.587-3.58,1.246-5.338,1.973c-1.76,0.727-3.419,1.601-4.981,2.621
	c-0.856,0.632-1.712,1.263-2.566,1.896c-0.857,0.632-1.661,1.356-2.414,2.174c-0.442,0.485-0.839,0.984-1.192,1.501
	c-0.353,0.515-0.733,1.047-1.139,1.594c-0.205,0.273-0.386,0.554-0.545,0.843c-0.16,0.288-0.325,0.602-0.493,0.936
	c-0.53,1.095-1.009,2.284-1.436,3.566c-0.137,0.395-0.247,0.74-0.335,1.03c-0.09,0.29-0.157,0.648-0.203,1.078
	c-0.305,1.375-0.442,2.736-0.406,4.085c-0.027,0.336-0.042,0.666-0.039,0.988c-0.001,0.321,0.03,0.667,0.092,1.036
	c0.122,0.736,0.228,1.444,0.316,2.119c0.089,0.675,0.248,1.351,0.481,2.029c0.176,0.706,0.4,1.368,0.668,1.986
	c0.269,0.616,0.536,1.293,0.801,2.033c0.435,1.047,0.963,2.005,1.581,2.872c0.62,0.866,1.255,1.763,1.908,2.692
	c0.619,0.866,1.314,1.649,2.09,2.35c0.774,0.7,1.562,1.392,2.364,2.078c0.802,0.685,1.652,1.264,2.549,1.736
	c0.897,0.472,1.811,0.974,2.742,1.508c1.393,0.601,2.7,1.048,3.923,1.341c0.992,0.258,1.958,0.471,2.899,0.637
	c0.94,0.165,1.925,0.287,2.96,0.362c1.942,0.057,3.882-0.085,5.817-0.426c1.038-0.17,2.021-0.41,2.95-0.718
	c0.925-0.31,1.858-0.642,2.796-0.996c0.664-0.206,1.31-0.48,1.935-0.824c0.624-0.343,1.235-0.68,1.833-1.009
	C496.192,268.737,497.002,268.152,497.822,267.58z M508.521,311.571c0.727,0.344,1.394,0.463,2,0.354
	c0.604-0.108,1.322-0.093,2.155,0.042c0.663,0.216,1.345,0.33,2.042,0.335c0.695,0.005,1.411-0.02,2.149-0.074
	c0.886,0.103,1.678,0.022,2.374-0.249c0.672-0.18,1.331-0.354,1.977-0.519c0.645-0.167,1.239-0.467,1.786-0.9
	c1.108-0.556,2.121-1.301,3.04-2.236c0.403-0.44,0.818-0.925,1.246-1.456c0.427-0.529,0.782-1.065,1.069-1.602
	c0.283-0.539,0.552-1.107,0.807-1.707c0.252-0.6,0.447-1.252,0.581-1.951c0.118-0.453,0.209-0.893,0.273-1.319
	c0.063-0.428,0.138-0.898,0.226-1.417c-0.049-0.372-0.089-0.723-0.119-1.063c-0.032-0.34-0.073-0.694-0.119-1.065
	c-0.016-0.308-0.033-0.615-0.047-0.923c-0.017-0.308-0.049-0.647-0.096-1.019c-0.143-0.56-0.311-1.067-0.504-1.521
	c-0.194-0.455-0.391-0.948-0.588-1.48c-0.135-0.405-0.304-0.776-0.504-1.107c-0.203-0.333-0.427-0.673-0.672-1.024
	c-0.245-0.349-0.463-0.714-0.653-1.092c-0.189-0.378-0.435-0.728-0.736-1.05c-1.03-1.219-2.095-2.302-3.195-3.247
	c-0.8-0.624-1.61-1.202-2.433-1.735l-1.319-0.757c0.309-0.629,0.487-1.31,0.534-2.044c0.221-0.664,0.289-1.29,0.202-1.877
	c-0.103-0.895-0.353-1.875-0.748-2.938c-0.776-1.266-1.613-2.307-2.506-3.12c-0.888-0.659-1.746-1.056-2.576-1.19
	c-0.784-0.316-1.643-0.437-2.577-0.362c-0.451,0.068-0.987,0.18-1.602,0.332c-1.015,0.194-2.075,0.57-3.182,1.126
	c-4.996,2.353-9.561,4.59-13.7,6.711c-4.139,2.12-8.237,4.397-12.287,6.829c-1.11,0.557-1.94,1.251-2.493,2.082
	c-0.785,0.789-1.303,1.758-1.555,2.912c-0.341,1.118-0.439,2.233-0.296,3.345c0.032,0.614,0.113,1.225,0.244,1.83
	c0.13,0.603,0.367,1.176,0.706,1.717c0.539,1.07,1.23,2.062,2.073,2.982c0.843,0.915,1.787,1.587,2.832,2.008
	c1.1,0.394,2.219,0.62,3.36,0.679c1.139,0.057,2.208-0.165,3.206-0.667c0.998-0.499,1.992-1.041,2.986-1.619
	c0.993-0.578,1.957-1.181,2.891-1.808c0.118,0.098,0.194,0.177,0.226,0.241c0.031,0.061,0.106,0.143,0.225,0.241
	c0.395,0.512,0.84,1.019,1.336,1.518c0.495,0.502,0.995,0.979,1.502,1.434c-0.301,0.231-0.587,0.492-0.855,0.785
	c-0.269,0.293-0.512,0.573-0.725,0.839c-0.919,0.935-1.843,1.892-2.772,2.874c-0.93,0.979-1.801,2.008-2.612,3.087
	c-0.812,1.078-1.495,2.172-2.047,3.28c-0.555,1.107-0.872,2.271-0.95,3.494c-0.048,0.736,0.025,1.427,0.214,2.084
	c0.189,0.652,0.389,1.321,0.594,2.008c0.427,1.127,1.196,2.101,2.303,2.925c1.108,0.822,2.204,1.277,3.289,1.365
	c0.283,0.015,0.577,0.044,0.878,0.091c0.299,0.044,0.577,0.044,0.832-0.005c0.197-0.022,0.506-0.096,0.925-0.229
	c0.418-0.133,0.712-0.239,0.88-0.322c0.718-0.362,1.566-1.026,2.54-1.988c0.973-0.962,1.941-2.042,2.902-3.235
	c0.962-1.193,1.871-2.418,2.731-3.681c0.857-1.26,1.52-2.323,1.988-3.189C508.199,312.245,508.315,311.989,508.521,311.571z
	 M506.963,291.287c0.333-0.167,0.657-0.351,0.974-0.549c0.316-0.2,0.595-0.4,0.843-0.602c-0.247,0.202-0.526,0.402-0.843,0.602
	c-0.317,0.198-0.599,0.399-0.843,0.601c0.545-0.433,1.134-0.848,1.769-1.244c0.632-0.398,1.236-0.781,1.816-1.15
	c0.387,0.357,0.745,0.691,1.075,0.998c0.327,0.309,0.67,0.61,1.027,0.904c-0.207-0.133-0.394-0.296-0.558-0.489
	c-0.167-0.193-0.353-0.355-0.558-0.488c0.474,0.392,0.91,0.844,1.306,1.355c0.395,0.512,0.791,1.023,1.187,1.533
	c0.364,0.448,0.684,0.879,0.962,1.292c0.276,0.412,0.597,0.843,0.962,1.29l0.191,0.379l-0.119,0.177
	c-0.025,0.091-0.118,0.18-0.285,0.263l-0.166,0.084c-0.111,0.057-0.31,0.076-0.593,0.061c-0.571-0.03-0.971-0.066-1.199-0.108
	c-0.753-0.253-1.481-0.598-2.185-1.031c-1.496-0.905-2.874-1.989-4.132-3.249C507.473,291.818,507.264,291.609,506.963,291.287z
	 M554.414,354.963c0.338-0.364,0.64-0.77,0.904-1.214c0.582-0.92,0.864-1.886,0.846-2.898c0.18-1.033,0.173-2.092-0.017-3.179
	c-0.335-1.094-0.795-2.124-1.378-3.093c-0.586-0.971-1.347-1.773-2.284-2.409c-0.293-0.171-0.584-0.342-0.876-0.51
	c-0.293-0.171-0.584-0.341-0.876-0.511c-1.303-0.534-2.604-0.715-3.903-0.544c-2.662,0.218-5.317,0.412-7.964,0.584
	c-2.65,0.172-5.295,0.245-7.938,0.218c0.34-0.011,0.667-0.017,0.979-0.014c0.312,0.002,0.638-0.002,0.98-0.014
	c-0.681,0.022-1.341,0.054-1.978,0.095c-0.638,0.041-1.284,0.027-1.941-0.041c-0.396,0.038-0.786,0.054-1.169,0.049
	c-0.385-0.007-0.747-0.005-1.087,0.007c0.726-0.912,1.445-1.798,2.159-2.663c0.712-0.866,1.431-1.753,2.158-2.663
	c0.86-1.057,1.684-2.115,2.475-3.174c0.789-1.06,1.613-2.118,2.475-3.175c0.319-0.474,0.632-0.924,0.94-1.351
	c0.306-0.429,0.619-0.878,0.94-1.351c0.103-0.21,0.236-0.394,0.4-0.554c0.162-0.16,0.296-0.343,0.401-0.552
	c0.079-0.118,0.154-0.214,0.221-0.287c0.068-0.074,0.14-0.169,0.221-0.287c0.048-0.182,0.119-0.316,0.215-0.402
	c0.095-0.087,0.167-0.22,0.216-0.402c-0.057,0.028-0.108,0.132-0.156,0.314c0.079-0.118,0.143-0.268,0.192-0.449
	c0.08-0.119,0.156-0.314,0.23-0.586c0.151-0.391,0.325-0.811,0.517-1.26c0.193-0.45,0.378-0.915,0.554-1.396l0.109-0.408
	l0.119-0.177l-0.082,0.041c0.321-1.026,0.386-2.079,0.196-3.165c-0.203-0.686-0.459-1.308-0.768-1.862
	c-0.31-0.554-0.717-1.06-1.22-1.519c-0.474-0.396-0.993-0.747-1.561-1.055c-0.568-0.308-1.154-0.511-1.754-0.605
	c-0.713-0.042-1.428,0.018-2.144,0.177c-0.717,0.16-1.319,0.518-1.805,1.071c-0.105,0.209-0.253,0.362-0.448,0.459
	c-0.196,0.096-0.359,0.217-0.495,0.363c-0.192,0.172-0.363,0.316-0.513,0.432c-0.151,0.113-0.324,0.257-0.513,0.431
	c-0.438,0.374-0.846,0.774-1.224,1.197c-0.379,0.424-0.786,0.822-1.223,1.197c-1.73,1.957-3.613,3.954-5.65,5.987
	c-1.028,1.138-2.041,2.27-3.04,3.395c-1,1.124-2.014,2.256-3.041,3.395c-0.916,1.084-1.855,2.159-2.813,3.224
	c-0.961,1.067-1.928,2.154-2.898,3.266c-1.028,1.139-1.998,2.289-2.909,3.449c-0.914,1.161-1.826,2.359-2.733,3.597
	c-0.289,0.536-0.518,1.122-0.686,1.757c-0.171,0.634-0.268,1.272-0.295,1.917c-0.016,1.502,0.288,2.886,0.915,4.149
	c0.625,1.263,1.512,2.319,2.66,3.166c1.146,0.848,2.348,1.353,3.607,1.517c10.678,1.158,21.177,1.461,31.493,0.912
	c1.362-0.046,2.743-0.121,4.146-0.225c1.401-0.105,2.81-0.194,4.228-0.267c0.958-0.161,1.862-0.568,2.714-1.226
	C553.685,355.621,554.076,355.327,554.414,354.963z M545.758,392.529c0.399,0.747,0.769,1.508,1.113,2.283
	c0.418,0.654,0.786,1.277,1.102,1.869c0.315,0.59,0.721,1.153,1.217,1.688c0.65,0.691,1.34,1.324,2.065,1.894
	c0.727,0.571,1.523,0.945,2.391,1.121c0.702,0.264,1.46,0.4,2.272,0.406c0.811,0.006,1.512-0.229,2.102-0.702
	c0.24-0.209,0.448-0.379,0.624-0.512c0.173-0.134,0.37-0.258,0.59-0.375c0.675-0.84,1.132-1.764,1.369-2.769
	c0.085-0.365,0.132-0.771,0.143-1.214c0.007-0.445,0.022-0.912,0.043-1.401c-0.002-0.4-0.079-0.839-0.229-1.317
	c-0.15-0.48-0.271-0.934-0.359-1.365c-0.202-0.773-0.474-1.447-0.816-2.022c-0.344-0.577-0.698-1.207-1.062-1.891
	c-0.454-0.716-0.907-1.433-1.359-2.152c-0.454-0.716-0.878-1.448-1.277-2.195c-0.255-0.344-0.495-0.695-0.721-1.054
	c-0.226-0.358-0.439-0.725-0.638-1.097c-0.442-0.563-0.875-1.112-1.299-1.643c-0.426-0.534-0.841-1.049-1.249-1.551
	c-0.068-0.125-0.13-0.212-0.191-0.258c-0.062-0.047-0.124-0.134-0.191-0.257c0.864-0.622,1.722-1.219,2.575-1.794
	c0.854-0.576,1.711-1.174,2.576-1.794c0.155,0.555,0.3,0.957,0.433,1.207c0.389,1.39,0.856,2.66,1.399,3.807
	c0.289,0.806,0.686,1.551,1.196,2.239c0.343,0.776,0.713,1.536,1.112,2.283c0.399,0.747,0.797,1.492,1.196,2.239
	c0.309,0.713,0.635,1.358,0.979,1.935c0.342,0.576,0.761,1.131,1.257,1.666c0.705,0.662,1.399,1.271,2.081,1.826
	c0.682,0.555,1.447,0.967,2.293,1.234c0.812,0.205,1.602,0.303,2.371,0.293c0.768-0.01,1.463-0.223,2.086-0.634
	c0.24-0.209,0.448-0.379,0.624-0.512c0.173-0.134,0.38-0.305,0.622-0.513c0.632-0.657,1.079-1.534,1.337-2.631
	c0.085-0.365,0.139-0.792,0.159-1.283c0.018-0.49,0.028-0.935,0.027-1.332c-0.002-0.4-0.066-0.845-0.187-1.338
	c-0.124-0.495-0.23-0.956-0.32-1.389c-0.256-0.743-0.541-1.41-0.856-2c-0.316-0.592-0.684-1.213-1.102-1.869l-2.636-4.346
	c-0.255-0.343-0.48-0.702-0.679-1.076c-0.199-0.373-0.427-0.731-0.68-1.075c-0.386-0.593-0.807-1.148-1.257-1.666
	c-0.454-0.519-0.883-1.027-1.29-1.529c-0.795-1.095-1.655-1.915-2.578-2.46l-0.395-0.148c0.075-0.122,0.118-0.204,0.13-0.25
	c0.01-0.047,0.053-0.129,0.13-0.25c0.293-0.636,0.401-1.353,0.327-2.153c-0.075-0.798-0.295-1.54-0.659-2.224
	c-0.367-0.685-0.866-1.257-1.497-1.719c-0.634-0.461-1.308-0.701-2.019-0.721c-0.144-0.004-0.287-0.007-0.428-0.011
	c-0.144-0.004-0.287-0.009-0.428-0.011c-0.319-0.07-0.64-0.079-0.962-0.026c-0.325,0.053-0.656,0.09-0.995,0.111
	c-0.342,0.022-0.629,0.076-0.864,0.161c-0.236,0.085-0.523,0.139-0.862,0.161c-0.539,0.048-1.035,0.171-1.487,0.374
	c-0.456,0.202-0.884,0.451-1.288,0.748c-0.274,0.146-0.556,0.276-0.846,0.391c-0.292,0.114-0.572,0.245-0.845,0.391
	c-1.095,0.584-2.175,1.16-3.241,1.73c-1.067,0.57-2.181,1.084-3.341,1.543c-1.095,0.584-2.161,1.154-3.201,1.709
	c-1.039,0.555-2.09,1.155-3.15,1.801c-1.095,0.584-2.154,1.169-3.175,1.754c-1.025,0.586-2.067,1.202-3.126,1.848
	c-0.637,0.26-1.233,0.557-1.79,0.896c-0.558,0.337-1.138,0.667-1.739,0.988c-0.328,0.175-0.643,0.343-0.944,0.503
	c-0.301,0.161-0.572,0.346-0.812,0.554c-0.547,0.293-1.122,0.599-1.723,0.92c-0.603,0.321-1.067,0.768-1.393,1.342
	c-0.208,0.271-0.396,0.511-0.565,0.721s-0.358,0.449-0.563,0.72c-0.164,0.486-0.306,0.944-0.431,1.369
	c-0.124,0.426-0.197,0.883-0.215,1.373c-0.032,0.336-0.05,0.665-0.053,0.988c-0.005,0.321,0.049,0.651,0.16,0.993
	c0.103,0.983,0.421,1.972,0.952,2.968c0.442,0.562,0.866,1.096,1.274,1.597c0.408,0.501,0.897,0.96,1.47,1.373
	c0.241,0.189,0.627,0.385,1.154,0.583c0.146,0.801,0.341,1.496,0.586,2.085c0.221,0.679,0.455,1.315,0.7,1.903
	c0.244,0.589,0.476,1.224,0.7,1.904c0.144,0.402,0.328,0.784,0.556,1.142c0.226,0.358,0.439,0.725,0.638,1.097
	c0.343,0.776,0.727,1.53,1.154,2.261c0.426,0.732,0.809,1.486,1.154,2.261c0.364,0.684,0.717,1.314,1.062,1.891
	c0.342,0.576,0.733,1.145,1.176,1.71c0.704,0.662,1.406,1.287,2.106,1.872c0.699,0.586,1.481,0.966,2.35,1.143
	c0.758,0.235,1.528,0.363,2.314,0.384c0.784,0.02,1.498-0.221,2.143-0.725c0.48-0.417,0.886-0.712,1.214-0.887
	c0.675-0.84,1.132-1.763,1.369-2.769c0.085-0.365,0.132-0.77,0.143-1.214c0.009-0.444,0.012-0.866,0.011-1.265
	c0.05-0.428,0.009-0.903-0.13-1.428c-0.14-0.525-0.282-0.989-0.426-1.391c-0.202-0.773-0.46-1.453-0.775-2.043
	c-0.316-0.593-0.711-1.199-1.185-1.826c-0.399-0.747-0.824-1.477-1.277-2.195s-0.907-1.434-1.359-2.152
	c-0.198-0.374-0.412-0.739-0.638-1.099c-0.226-0.358-0.467-0.709-0.72-1.053c-0.675-1-1.37-1.907-2.086-2.722
	c0.185-0.18,0.374-0.32,0.566-0.422c0.192-0.102,0.406-0.258,0.648-0.466c0.602-0.321,1.172-0.667,1.715-1.035
	c0.54-0.369,1.095-0.745,1.664-1.128c0.188,0.619,0.405,1.223,0.65,1.811c0.244,0.589,0.487,1.178,0.732,1.766
	c0.144,0.402,0.33,0.784,0.557,1.142c0.225,0.359,0.411,0.739,0.556,1.142C544.962,391.037,545.359,391.783,545.758,392.529z
	 M332.549,182.394c-1.188-1.249-3.082-1.535-4.585-0.692l-15.205,8.518l-0.38-42.038c-0.05-5.565-4.603-10.036-10.168-9.986
	c-5.565,0.05-10.036,4.603-9.986,10.168l0.386,42.77l-15.318-9.27c-1.474-0.892-3.371-0.672-4.602,0.534
	c-1.231,1.206-1.489,3.098-0.627,4.59l26.075,45.127c0.663,1.148,1.877,1.863,3.203,1.888c1.325,0.024,2.565-0.646,3.27-1.769
	l28.399-45.225C333.927,185.548,333.736,183.642,332.549,182.394z"/>
<path id="Color_x5F_1" fill="#F08810" d="M338.708,169.063c-2.822-1.355-4.011-4.742-2.656-7.564
	c1.355-2.822,4.742-4.011,7.564-2.656c2.378,1.142,4.728,2.384,7.052,3.719c2.715,1.559,3.652,5.024,2.093,7.739
	c-1.559,2.715-5.024,3.652-7.739,2.093C342.926,171.19,340.822,170.078,338.708,169.063L338.708,169.063z M547.383,489.285
	c-1.912-2.479-1.453-6.038,1.025-7.951c2.479-1.912,6.038-1.453,7.951,1.025c3.078,3.989,6.122,7.578,9.117,10.718
	c2.161,2.265,2.077,5.853-0.188,8.014c-2.265,2.161-5.853,2.077-8.014-0.188C553.948,497.418,550.659,493.531,547.383,489.285
	L547.383,489.285z M523.036,451.674c-1.549-2.72-0.6-6.182,2.12-7.731c2.72-1.549,6.182-0.6,7.731,2.12
	c2.47,4.337,4.925,8.514,7.363,12.507c1.631,2.672,0.788,6.161-1.884,7.792c-2.672,1.631-6.161,0.788-7.792-1.884
	C528.067,460.372,525.556,456.097,523.036,451.674L523.036,451.674z M502.186,412.565c-1.418-2.791-0.305-6.203,2.487-7.621
	c2.791-1.418,6.203-0.305,7.621,2.487c2.244,4.418,4.474,8.758,6.689,13.006c1.448,2.776,0.371,6.2-2.405,7.647
	c-2.776,1.448-6.2,0.371-7.647-2.405C506.693,421.389,504.445,417.013,502.186,412.565L502.186,412.565z M482.53,373.064
	c-1.383-2.808-0.228-6.207,2.58-7.59c2.808-1.383,6.207-0.228,7.59,2.58c2.179,4.424,4.343,8.816,6.492,13.164
	c1.387,2.807,0.236,6.206-2.57,7.593c-2.807,1.387-6.206,0.236-7.593-2.57C486.875,381.884,484.709,377.488,482.53,373.064
	L482.53,373.064z M462.96,333.661c-1.411-2.795-0.29-6.204,2.505-7.615c2.795-1.411,6.204-0.29,7.615,2.505
	c2.215,4.388,4.413,8.776,6.594,13.155c1.396,2.802,0.255,6.205-2.547,7.601c-2.802,1.396-6.205,0.255-7.601-2.547
	C467.352,342.397,465.164,338.027,462.96,333.661L462.96,333.661z M442.66,294.757c-1.495-2.751-0.477-6.192,2.273-7.687
	c2.751-1.495,6.192-0.477,7.687,2.273c2.341,4.307,4.661,8.647,6.962,13.008c1.46,2.769,0.4,6.198-2.37,7.658
	c-2.769,1.46-6.198,0.4-7.658-2.37C447.274,303.316,444.976,299.018,442.66,294.757L442.66,294.757z M422.645,249.086
	c2.662-1.647,6.156-0.825,7.803,1.837c2.575,4.161,5.124,8.392,7.647,12.681c1.588,2.698,0.687,6.173-2.011,7.76
	c-2.698,1.588-6.173,0.687-7.76-2.011c-2.484-4.222-4.989-8.381-7.517-12.465C419.16,254.227,419.983,250.733,422.645,249.086z
	 M397.377,213.038c2.487-1.901,6.045-1.426,7.946,1.062c2.972,3.889,5.907,7.9,8.807,12.02c1.802,2.56,1.187,6.096-1.373,7.898
	c-2.56,1.802-6.096,1.187-7.898-1.373c-2.821-4.008-5.669-7.901-8.544-11.661C394.415,218.497,394.89,214.939,397.377,213.038z
	 M367.578,189.099c-2.321-2.101-2.498-5.686-0.397-8.007c2.101-2.321,5.686-2.498,8.007-0.397
	c3.654,3.309,7.246,6.833,10.784,10.554c2.157,2.269,2.067,5.857-0.202,8.014c-2.269,2.157-5.857,2.067-8.014-0.202
	C374.396,195.527,371.003,192.2,367.578,189.099L367.578,189.099z M280.284,475.002c0,12.31,9.98,22.29,22.29,22.29
	c12.311,0,22.29-9.98,22.29-22.29H280.284z M275.795,437.416c-6.466,0-11.709,5.243-11.709,11.71
	c0,6.467,5.242,11.709,11.709,11.709c6.467,0,11.709-5.242,11.709-11.709C287.504,442.659,282.262,437.416,275.795,437.416z
	 M329.353,437.416c-6.467,0-11.709,5.243-11.709,11.71c0,6.467,5.242,11.709,11.709,11.709s11.709-5.242,11.709-11.709
	C341.061,442.659,335.82,437.416,329.353,437.416z M35.384,519.981c3.414,0.002,6.782-0.626,10.02-1.769
	c3.014-1.063,4.597-4.368,3.534-7.383c-1.063-3.015-4.368-4.597-7.383-3.534c-2.14,0.753-4.165,1.11-6.172,1.111
	c-3.197,0-5.788,2.592-5.788,5.788c0,3.197,2.591,5.789,5.788,5.789V519.981z M227.151,209.169
	c-2.024,2.474-5.671,2.839-8.145,0.815c-2.474-2.024-2.839-5.67-0.815-8.145c3.855-4.711,7.787-9.187,11.806-13.394
	c2.209-2.311,5.872-2.395,8.184-0.187s2.395,5.872,0.187,8.184C234.576,200.409,230.837,204.663,227.151,209.169L227.151,209.169z
	 M200.588,247.01c-1.678,2.721-5.244,3.566-7.965,1.888c-2.721-1.678-3.566-5.244-1.888-7.965
	c3.134-5.081,6.317-10.036,9.553-14.845c1.786-2.652,5.382-3.355,8.034-1.57c2.652,1.786,3.354,5.382,1.569,8.034
	C206.75,237.221,203.648,242.049,200.588,247.01L200.588,247.01z M177.71,287.63c-1.477,2.835-4.973,3.936-7.808,2.458
	c-2.835-1.477-3.936-4.972-2.459-7.807c2.722-5.224,5.48-10.391,8.276-15.482c1.539-2.802,5.058-3.825,7.859-2.286
	c2.802,1.539,3.826,5.058,2.287,7.859C183.114,277.381,180.396,282.474,177.71,287.63L177.71,287.63z M149.273,332.388
	c-2.89-1.365-4.127-4.815-2.761-7.706c2.492-5.275,5.012-10.544,7.562-15.787c1.397-2.875,4.862-4.072,7.736-2.674
	c2.875,1.398,4.072,4.862,2.674,7.737c-2.529,5.199-5.029,10.428-7.505,15.668C155.614,332.517,152.164,333.753,149.273,332.388z
	 M129.645,375.156c-2.91-1.322-4.196-4.755-2.873-7.664c2.388-5.253,4.799-10.551,7.237-15.874c1.33-2.907,4.766-4.184,7.672-2.853
	c2.907,1.331,4.184,4.766,2.853,7.672c-2.431,5.307-4.838,10.595-7.225,15.844C135.987,375.193,132.555,376.48,129.645,375.156z
	 M109.983,417.907c-2.896-1.354-4.144-4.8-2.789-7.696c2.413-5.156,4.847-10.423,7.303-15.778c1.333-2.906,4.769-4.18,7.674-2.848
	c2.906,1.333,4.18,4.769,2.847,7.675c-2.465,5.375-4.911,10.668-7.341,15.858C116.323,418.014,112.878,419.263,109.983,417.907z
	 M88.82,459.933c-2.817-1.512-3.875-5.02-2.364-7.837c2.624-4.89,5.268-10.015,7.935-15.337c1.432-2.858,4.91-4.014,7.768-2.582
	c2.858,1.432,4.014,4.91,2.582,7.767c-2.707,5.403-5.4,10.622-8.085,15.625C95.145,460.386,91.636,461.443,88.82,459.933z
	 M62.621,498.91c-2.468-2.032-2.821-5.68-0.789-8.147c3.246-3.943,6.549-8.495,9.888-13.572c1.757-2.671,5.346-3.412,8.017-1.656
	c2.671,1.757,3.411,5.346,1.655,8.017c-3.518,5.349-7.048,10.227-10.623,14.569C68.736,500.588,65.088,500.941,62.621,498.91z
	 M259.536,177.813c2.171-1.548,4.354-2.994,6.55-4.334c2.728-1.666,3.591-5.227,1.925-7.956c-1.665-2.728-5.227-3.59-7.955-1.925
	c-2.446,1.492-4.858,3.091-7.24,4.79c-2.603,1.856-3.208,5.47-1.353,8.073C253.319,179.064,256.933,179.669,259.536,177.813z
	 M7.442,524.492c15.515,0.002,29.382-2.15,41.978-5.943c22.065-6.637,40.09-18.233,56.788-31.449
	c12.535-9.924,24.383-20.78,36.796-31.414c18.625-15.965,38.472-31.414,63.714-42.936c25.25-11.51,55.979-19.205,96.777-19.219
	c36.392,0.021,63.848,7.877,87.052,19.654c17.396,8.846,32.407,19.979,46.728,31.892c10.739,8.932,21.077,18.296,31.732,27.378
	c15.977,13.613,32.689,26.63,52.586,36.27c19.883,9.647,42.94,15.784,70.966,15.767c4.11,0,7.441-3.331,7.441-7.441
	s-3.331-7.441-7.441-7.441c-15.339-0.002-28.787-1.96-40.963-5.355c-21.291-5.945-38.804-16.323-55.416-28.918
	c-12.448-9.44-24.336-20.12-36.752-30.917c-18.621-16.179-38.458-32.656-63.316-45.095c-24.845-12.448-54.675-20.696-92.618-20.676
	c-43.341-0.015-76.853,8.417-104.245,21.155c-20.545,9.541-37.612,21.446-52.926,33.753c-11.488,9.232-22.002,18.692-32.293,27.614
	c-15.436,13.398-30.347,25.537-47.164,34.252c-16.836,8.709-35.551,14.164-59.425,14.186c-4.11,0-7.442,3.332-7.442,7.442
	S3.332,524.492,7.442,524.492z"/>
</svg>
